<?xml version="1.0" encoding="UTF-8" standalone="no"?>
<!-- Created with Inkscape (http://www.inkscape.org/) -->

<svg
   xmlns:dc="http://purl.org/dc/elements/1.1/"
   xmlns:cc="http://creativecommons.org/ns#"
   xmlns:rdf="http://www.w3.org/1999/02/22-rdf-syntax-ns#"
   xmlns:svg="http://www.w3.org/2000/svg"
   xmlns="http://www.w3.org/2000/svg"
   xmlns:sodipodi="http://sodipodi.sourceforge.net/DTD/sodipodi-0.dtd"
   xmlns:inkscape="http://www.inkscape.org/namespaces/inkscape"
   version="1.1"
   id="svg2"
   xml:space="preserve"
   width="7.6076388in"
   height="2.782361in"
   viewBox="0 0 730.33331 267.10666"
   sodipodi:docname="rifle.svg"
   inkscape:version="0.92.1 r"><metadata
     id="metadata8"><rdf:RDF><cc:Work
         rdf:about=""><dc:format>image/svg+xml</dc:format><dc:type
           rdf:resource="http://purl.org/dc/dcmitype/StillImage" /><dc:title></dc:title></cc:Work></rdf:RDF></metadata><defs
     id="defs6" /><sodipodi:namedview
     pagecolor="#ffffff"
     bordercolor="#666666"
     borderopacity="1"
     objecttolerance="10"
     gridtolerance="10"
     guidetolerance="10"
     inkscape:pageopacity="0"
     inkscape:pageshadow="2"
     inkscape:window-width="640"
     inkscape:window-height="480"
     id="namedview4"
     showgrid="false"
     inkscape:zoom="0.87631221"
     inkscape:cx="365.16666"
     inkscape:cy="133.55333"
     inkscape:current-layer="g10"
     units="in" /><g
     id="g10"
     inkscape:groupmode="layer"
     inkscape:label="ink_ext_XXXXXX"
     transform="matrix(1.3333333,0,0,-1.3333333,0,267.10667)"><g
       id="g12"
       transform="scale(0.1)"><path
         d="m 277.664,1225.04 v -37.27 l 233.93,233.93 H 474.332 Z M 1485.85,910.762 v 51.508 h -234.9 l 51.52,-51.508 z M 277.664,1276.55 422.816,1421.7 h -47.953 l -97.199,-97.2 z m 47.949,279.6 h 196.672 v 29.81 H 325.613 Z M 1183.56,1446 l 75.17,-75.17 74.84,75.17 z m 580.61,143.21 c 0,21.6 10.8,32.39 32.39,32.39 h 44.07 c 21.6,0 32.4,-10.79 32.4,-32.39 v -86.84 h -108.86 z m -246.24,-324.33 43.74,-43.74 -31.43,-31.43 27.87,-27.85 -48.61,-48.61 -71.92,71.28 z m 146.12,-46.65 25.6,-25.59 -187.92,-187.6 h -51.19 z M 3480.38,694.648 c 0,4.102 -0.33,7.774 -0.98,11.012 -1.07,3.672 -2.48,6.922 -4.2,9.719 5.4,-3.449 8.96,-8.848 10.69,-16.199 0.64,-3.231 0.97,-6.91 0.97,-11.02 V 601.34 H 3378 l -6.49,6.48 h 108.87 z m -11.67,3.243 c 0.66,-2.59 0.98,-5.512 0.98,-8.75 V 619.48 h -87.16 v 69.661 c 0,17.281 8.64,25.918 25.92,25.918 h 35.32 c 14.03,0 22.35,-5.727 24.94,-17.168 z m -38.88,-139 v -92.012 l -92.01,92.012 z M 1421.05,1636.51 v -30.78 h -47.3 v 30.78 z m 23.66,-39.53 v 84.56 h 154.54 l -84.56,-84.56 z m -312.66,-352.51 37.58,37.27 -164.27,164.26 h -75.489 z m 2325,-553.388 c -0.87,3.027 -2.37,5.398 -4.54,7.129 -3.02,2.801 -7.55,4.211 -13.6,4.211 h -25.6 c -12.53,0 -18.79,-6.371 -18.79,-19.113 v -50.547 h 63.51 v 50.547 c 0,3.023 -0.33,5.613 -0.98,7.773 z m -212.22,-132.191 185,-185 V 86.5 h 87.48 v 472.391 h 29.16 V 86.5 h 19.44 V 0 h -518.39 v 86.5 h 25.92 V 558.891 Z M 1987.4,1017.68 v -32.09 l -214.16,214.16 h 138.99 l 128.63,-128.62 z m 376.48,-141.602 29.16,-29.156 16.2,16.199 -29.16,29.16 z m 435.13,-57.34 v 45.364 H 2430.3 L 2361.29,795.09 V 677.801 h 296.79 z m -128.3,60.922 v 44.379 h -23 V 879.66 Z m 161.03,276.03 v -76.13 h 75.16 V 826.191 L 2626.32,545.602 h -362.55 v 16.539 h -332.74 v -38.879 c -23.33,-19.883 -40.4,-38.563 -51.2,-56.051 -6.91,-10.82 -11.45,-21.18 -13.6,-31.109 l -4.22,-17.821 c 2.38,-7.562 0.97,-13.511 -4.21,-17.82 -1.94,1.07 -4,2.16 -6.15,3.238 l -4.22,-14.578 c 1.52,-0.43 2.92,-0.98 4.22,-1.621 l -56.38,-235.23 c 1.08,0 2.27,0 3.56,0 5.4,-9.071 1.95,-18.141 -10.36,-27.211 -44.07,-0.43 -89,6.8 -134.79,21.711 -109.08,36.07 -195.04,93.41 -257.9,172.039 -3.67,19.66 3.24,26.781 20.74,21.382 129.81,96.77 212.65,235.008 248.5,414.719 11.45,46.879 -1.94,85.11 -40.18,114.699 h -424.43 l -30.13,30.121 h -50.55 v 42.122 h 105.3 v 40.507 l 290.31,0.321 182.4,182.42 289.66,-289.659 v -49.25 h 172.04 c -7.77,-6.05 -15.01,-12.211 -21.71,-18.472 -39.09,-36.5 -58.97,-76.778 -59.61,-120.848 0,-3.242 0.11,-6.473 0.32,-9.711 h 13.29 v -19.121 h -160.7 v -41.48 h 332.74 l 51.51,51.851 v 157.781 h -20.41 v 30.778 l 94.93,94.929 h 417.96 V 1139.5 Z m -51.52,190.84 -41.47,41.48 v 31.42 h 184.68 l -72.9,-72.9 z m 51.84,-67.71 31.43,31.42 v -31.42 z m -231.98,40.82 h 223.56 l -40.83,-40.82 h -161.67 l -21.06,21.05 z m 19.11,171.4 39.21,39.19 39.2,-39.19 z m 239.11,72.89 v -72.89 h -41.79 l -72.9,72.89 z m 79.39,63.51 H 2733.9 v 44.38 h 203.79 z M 2328.24,1332.6 h 239.12 l 15.55,-15.55 v -127.34 l -34.02,-34.02 h -220.65 z m -118.25,-23 h 43.09 v -138.35 h -43.09 z m -42.45,240.08 -37.9,37.91 -50.88,-50.87 -327.23,327.23 h 12.64 l 17.49,-17.49 h 120.85 l 17.5,17.49 h 3.24 l -0.97,-15.86 -15.23,-15.24 h -67.07 l 257.58,-257.58 33.7,33.7 59.29,-59.29 z m -77.43,19.12 -264.07,264.05 h -17.49 l 272.81,-272.8 z m 280.57,-36.29 v 31.42 h 184.69 l -72.9,-72.89 h -70.31 z m -180.13,54.42 -64.15,64.16 35.96,35.64 64.15,-64.15 z m -1515.019,-30.78 4.864,34.68 h 169.449 v -7.78 h 88.777 v 7.78 h 224.849 l 15.88,-34.68 h 384.91 v -12.63 h 75.16 l 51.84,-51.84 h 598.11 l 26.24,-26.24 h -15.55 v -63.83 h -105.3 v 63.83 h -27.54 v -63.83 h -198.94 l -20.73,20.73 v 43.1 h -268.92 l -65.45,65.45 h -97.52 v -197.64 l -294.19,-294.19 h -80.03 v 51.84 h -21.71 v 47.3 h -0.32 l -40.5,3.57 -295.16,295.15 H 608.145 L 345.383,1174.16 v -44.39 h 16.195 v -87.48 h -16.195 v -11.01 h 18.465 v -30.13 h -18.465 v -89.099 l -40.828,-29.813 v -104 l -51.52,-51.508 -23.316,13.282 -17.5,-13.282 v -33.699 h -68.688 v 48.918 L 82.293,803.18 v 460.73 H 71.2813 v 143.53 H 82.293 v 46.02 L 0,1535.74 v 56.38 l 1.62109,1.62 H 143.531 v 45.36 h 68.688 v -82.95 h 32.078 l 48.598,68.37 h 43.089 v 34.02 h 31.106 v -34.02 h 85.539 v 34.02 h 31.098 v -34.02 h 50.546 l 68.364,-68.37 z m 1362.739,281.24 -45.36,-45.69 -43.74,43.75 45.36,45.68 z m 596.15,-5.18 h -322.05 l -45.04,45.04 h 136.41 l 47.94,47.95 h 190.52 l -47.96,-47.95 h 85.22 z m -73.22,30.45 49.89,49.9 H 2455.9 l -51.52,-51.52 h -85.53 l 19.76,-19.76 h 271.19 l 21.38,21.38 z m 1008.6,-545.29 81.97,81.97 h 202.5 l 81.97,-81.97 z m 486.65,98.82 100.11,-100.12 h -129.27 l -100.12,100.12 z m -917.56,-69.66 h -194.08 l 72.9,72.9 h 121.18 z m 398.51,-29.16 h -59.28 l 81.97,81.97 h 59.29 z m -398.51,-62.85 h 171.06 v 109.51 h 72.26 v -109.51 h 48.28 l -146.78,-146.78 v -104.65 h -118.25 l -90.72,90.73 64.15,64.14 z m -11.34,78.08 v -53.78 H 2963.6 v 53.78 z m -25.27,323.35 v -28.51 h -49.57 v 28.51 z m 136.71,0 v -28.51 h -62.52 v 28.51 z m 173.68,91.36 44.06,44.08 102.7,-102.72 h -88.12 z m 70.3,185.66 244.3,-244.3 h -26.24 l -223.25,223.24 -96.23,-0.33 -21.37,21.39 z M 5201.46,818.09 h 38.55 c 15.12,0 22.69,-7.551 22.69,-22.668 V 728.34 h -83.92 v 67.082 c 0,15.117 7.55,22.668 22.68,22.668 z m 276.04,56.371 h -249.8 c 4.75,4.758 9.72,9.07 14.9,12.961 15.98,11.887 33.81,19.437 53.46,22.687 H 5477.5 Z M 4900.78,994.02 h 46.66 v -82.622 h -33.05 v -51.187 h 33.05 v -113.07 l -99.14,0.961 -126.03,-125.704 V 613 h -12 V 561.16 H 4597.84 V 613 h -21.38 V 561.16 H 4464.03 V 613 h -25.91 V 561.16 H 4325.69 V 613 h -21.38 V 561.16 H 4191.88 V 613 h -25.91 V 561.16 H 4053.53 V 613 h -21.38 V 561.16 H 3919.73 V 613 H 3893.8 V 561.16 H 3781.38 V 613 h -114.06 v 175.93 l -214.16,214.16 h -1.62 v 84.89 h 85.86 V 978.801 h -30.46 l 117.94,-117.942 v 118.262 h -11.01 v 275.399 h 40.17 l 31.11,-31.1 h 147.1 l 78.72,-78.74 h -147.09 l 66.09,-66.1 h 51.19 l 23.33,-23.33 h 996.29 z m 163.95,-40.5 v -65.77 c 0,-2.809 0.44,-5.512 1.3,-8.09 1.28,-0.23 2.58,-0.34 3.88,-0.34 0.43,0 0.86,0 1.29,0 7.14,0.231 13.29,2.918 18.48,8.102 5.4,5.41 8.09,11.988 8.09,19.777 v 46.321 z m 20.73,61.56 c 1.08,-0.22 2.17,-0.65 3.24,-1.29 2.81,-1.3 5.29,-3.03 7.46,-5.19 3.02,-3.03 5.18,-6.37 6.48,-10.049 0.43,-1.5 0.86,-3.121 1.3,-4.852 0.21,-1.508 0.32,-3.14 0.32,-4.859 v -84.891 c 0,-7.769 -2.71,-14.359 -8.1,-19.758 -5.41,-5.402 -11.99,-8.113 -19.76,-8.113 -1.73,0 -3.35,0.113 -4.87,0.332 -1.73,0.43 -3.35,0.86 -4.86,1.289 -2.16,0.871 -4.1,1.852 -5.83,2.922 -1.51,1.09 -2.92,2.27 -4.21,3.57 -2.38,2.368 -4.22,4.848 -5.51,7.45 -1.73,3.668 -2.59,7.769 -2.59,12.308 v 84.891 c 0,7.781 2.7,14.36 8.1,19.76 5.4,5.4 11.98,8.1 19.77,8.1 3.24,0 6.26,-0.54 9.06,-1.62 z m 7.14,-14.58 c -0.44,0 -0.87,0 -1.3,0 -7.13,-0.22 -13.28,-2.91 -18.48,-8.102 -5.39,-5.398 -8.09,-11.976 -8.09,-19.757 v -4.539 h 33.04 v 24.296 c 0,0.43 0,0.981 0,1.622 -0.21,2.16 -0.53,4.21 -0.96,6.15 -1.3,0.22 -2.7,0.33 -4.21,0.33 z m -265.04,332.1 -66.74,66.74 h 139.96 v -66.74 z m -205.73,-16.53 -100.12,100.12 h 129.28 l 100.11,-100.12 z m 309.73,126.36 h 131.55 v -155.84 h -52.16 c -0.65,1.07 -1.3,2.16 -1.95,3.24 0,0.22 -0.1,0.33 -0.32,0.33 -12.32,21.38 -22.9,41.03 -31.76,58.96 -2.37,4.76 -4.64,9.4 -6.8,13.93 -1.73,3.46 -3.24,6.92 -4.53,10.37 -0.43,0.87 -0.87,1.62 -1.3,2.27 -0.22,0.65 -0.43,1.19 -0.65,1.62 0,0.22 -0.1,0.43 -0.32,0.65 -0.87,2.17 -1.73,4.33 -2.6,6.47 -0.64,1.09 -1.19,2.17 -1.62,3.25 -2.37,5.39 -4.75,10.58 -7.12,15.55 -0.21,0.65 -0.43,1.19 -0.65,1.62 -0.43,0.86 -0.86,1.62 -1.3,2.27 -0.86,1.94 -1.72,3.78 -2.59,5.51 -1.08,2.37 -2.16,4.64 -3.24,6.8 -4.54,8.42 -8.74,16.1 -12.64,23 z m -502.52,-126.36 -100.11,100.12 h 119.56 l 100.11,-100.12 z m -174.64,100.12 100.12,-100.12 h -129.28 l -100.11,100.12 z m -166.53,246.56 144.84,-35.31 h -948.02 v 35.31 z m 657.07,55.4 v -90.71 h -175.93 l 7.45,7.45 h 0.33 l 6.48,6.48 h -0.33 l 9.4,9.39 c 4.75,1.73 8.64,3.79 11.66,6.16 3.89,3.24 5.73,6.91 5.51,11.02 h 24.63 c 4.75,1.73 6.26,5.4 4.53,11.01 h 16.2 v 11.34 c 10.16,2.82 14.8,7.45 13.93,13.94 h 54.76 v -5.19 h 6.16 v 19.11 z m 413.1,-542.37 -9.08,16.86 h 200.24 v -8.75 h 13.28 v 8.75 h 43.42 v -187.28 l -37.91,37.91 h -71.93 v 59.29 c -2.15,0.87 -4.31,1.62 -6.48,2.27 -20.09,7.35 -39.74,15.98 -58.96,25.92 -10.38,5.4 -20.63,11.13 -30.79,17.17 -7.98,4.76 -15.77,9.72 -23.33,14.9 -0.86,0.44 -1.62,0.98 -2.26,1.62 -5.62,3.69 -11.02,7.45 -16.2,11.34 z m -1.95,266.65 h 93.31 v 15.56 h 81.33 l 0.32,-0.98 v -14.58 h 83.27 v -155.84 h -83.27 v -15.55 h -81.65 v 15.55 h -93.31 v -15.55 h -17.49 v 183.38 h 17.49 v -11.99"
         style="fill:#242322;fill-opacity:1;fill-rule:evenodd;stroke:none"
         id="path14"
         inkscape:connector-curvature="0" /><path
         d="m 5003.16,1363.05 h 59.95 v -76.46 h -52.16 c -0.65,1.07 -1.3,2.16 -1.95,3.24 0,0.22 -0.1,0.33 -0.32,0.33 -12.32,21.38 -22.9,41.03 -31.76,58.96 -2.37,4.76 -4.64,9.4 -6.8,13.93 z m 59.95,49.9 h -82.3 l -13.28,29.48 h 95.58 z m -346.03,266 h -11.99 v -19.44 h -46.01 l -8.74,-8.75 h 66.74 z m -62.21,0 v 11.34 h 68.69 v -39.53 h 6.16 v 40.18 h -6.16 v 8.1 h 6.16 v 9.72 h 15.22 v -81.32 h -175.93 l 7.45,7.45 h 0.33 l 6.48,6.48 h -0.33 l 9.4,9.39 h 47.3 l 14.26,14.26 h 42.13 v 13.93 z m 694.33,-530.71 v 14.58 h -172.7 c -0.86,0.44 -1.62,0.98 -2.26,1.62 -5.62,3.69 -11.02,7.45 -16.2,11.34 l -9.08,16.86 h 200.24 v -8.75 h 13.28 v 8.75 h 43.42 v -29.82 h -43.42 v -14.58 -46.33 -17.16 h 43.42 v -79.39 l -37.91,37.91 h -71.93 v 41.48 h 53.14 v 17.16 z m -18.15,256.61 v 14.58 h -81.65 v -6.48 h -110.8 v 41.47 h 17.49 v -11.99 h 93.31 v 15.56 h 81.33 l 0.32,-0.98 v -14.58 h 83.27 v -155.84 h -83.27 v -15.55 h -81.65 v 15.55 h -93.31 v -15.55 h -17.49 v 92.01 h 17.49 93.31 v 6.48 h 81.65 v 7.78 h 8.43 v -14.26 h 67.06 v 14.26 27.54 8.1 h -67.06 v -8.1 h -8.43"
         style="fill:#1a1817;fill-opacity:1;fill-rule:evenodd;stroke:none"
         id="path16"
         inkscape:connector-curvature="0" /><path
         d="m 4483.15,651.559 h -19.12 V 994.02 h 19.12 v -25.918 h 93.31 v -54.75 H 4474.4 V 879.66 h 8.75 V 669.051 Z m 114.69,0 V 994.02 h 19.12 v -25.918 h 93.31 v -54.75 H 4608.21 V 879.66 h 8.75 V 669.051 651.559 Z m -272.15,0 V 994.02 h 19.11 v -25.918 h 93.32 v -54.75 H 4336.06 V 879.66 h 8.74 V 669.051 651.559 Z M 4210.99,879.66 V 651.559 h -19.11 V 994.02 h 19.11 v -25.918 h 93.32 v -54.75 H 4202.25 V 879.66 Z M 4072.65,651.559 h -19.12 V 994.02 h 19.12 v -25.918 h 93.32 v -54.75 H 4063.9 V 879.66 h 8.75 V 669.051 Z m -152.92,0 V 994.02 h 19.11 v -25.918 h 93.31 v -54.75 H 3930.09 V 879.66 h 8.75 V 669.051 651.559 Z M 3800.49,879.66 V 651.559 h -19.11 V 994.02 h 19.11 v -25.918 h 93.31 v -54.75 H 3791.75 V 879.66 Z m 1183.89,525.19 12.31,-27.54 h -28.84 l -12.31,27.54 z m 12.63,-27.54 h 66.1 v -14.26 h -59.95 z m -16.2,35.64 h 82.3 v -8.1 h -78.41 z m 381.67,-311.04 h 43.42 v -17.16 h -43.42 z m 43.42,46.33 h -43.42 v 14.58 h 43.42 z m -229.4,14.58 h 172.7 v -14.58 l -116,-0.32 73.88,-38.23 v -7.78 h 42.12 v -17.16 h -53.14 v 17.81 c -2.15,0.87 -4.31,1.62 -6.48,2.27 -20.09,7.35 -39.74,15.98 -58.96,25.92 -10.38,5.4 -20.63,11.13 -30.79,17.17 -7.98,4.76 -15.77,9.72 -23.33,14.9 z m 154.55,248.51 h -81.65 v -6.48 h -93.31 v -27.54 h -17.49 v 35.64 h 110.8 v 6.48 h 81.65 z m 0,-6.48 h 8.43 v 8.1 h 67.06 v -8.1 h -67.06 v -27.54 h 67.06 v -14.26 h -67.06 v 14.26 h -8.43 v -7.78 h -81.65 v -6.48 h -93.31 v 14.26 h 93.31 v 6.48 h 81.65 v 21.06"
         style="fill:#2e2d2d;fill-opacity:1;fill-rule:evenodd;stroke:none"
         id="path18"
         inkscape:connector-curvature="0" /><path
         d="m 3893.8,879.66 h -102.05 v 33.692 h 102.05 z m 138.35,0 h -102.06 v 33.692 h 102.06 z m 133.82,0 H 4063.9 v 33.692 h 102.07 z m 138.34,0 h -102.06 v 33.692 h 102.06 z m 40.49,0 h -8.74 v 33.692 h 102.06 V 879.66 Z m 231.66,0 H 4474.4 v 33.692 h 102.06 z m 133.81,0 h -102.06 v 33.692 h 102.06 z m 286.42,497.65 -12.31,27.54 h 78.73 v -27.54 h -66.1 z m -273.13,321.73 v -8.1 h 6.16 v -40.18 h -6.16 v 39.53 h -68.69 c 10.16,2.82 14.8,7.45 13.93,13.94 h 54.76 z m -6.48,-20.09 v -28.19 h -66.74 l 8.74,8.75 h 46.01 v 19.44 z m -62.21,0 h 41.16 v -13.93 h -42.13 l -14.26,-14.26 h -47.3 c 4.75,1.73 8.64,3.79 11.66,6.16 3.89,3.24 5.73,6.91 5.51,11.02 h 24.63 c 4.75,1.73 6.26,5.4 4.53,11.01 z m 74.85,29.81 v 9.39 h 15.22 v -9.39 z m 619.48,-560.52 v -46.33 h -42.12 v 7.78 l -73.88,38.23 z m 13.28,0 h 43.42 v -46.33 h -43.42 z m -31.43,263.09 v -27.54 h -81.65 v -6.48 h -93.31 v 27.54 h 93.31 v 6.48 z m 8.43,-6.48 h 67.06 v -27.54 h -67.06 v 27.54"
         style="fill:#4d4c4d;fill-opacity:1;fill-rule:evenodd;stroke:none"
         id="path20"
         inkscape:connector-curvature="0" /><path
         d="m 3635.9,966.48 v -68.371 h 38.23 v 68.371 z m 105.62,49.9 h -55.73 V 858.91 l 42.77,-42.441 36.29,36.613 -23.33,23.328 v 80.02 h -32.4 v 16.531 h 32.4 z m 1205.92,-82.298 v -22.684 h -33.05 v -51.187 h 33.05 v -113.07 l -72.58,0.64 v 82.938 l -86.82,86.84 v 73.543 h -30.46 v -104 l 34.02,-34.02 -47.3,-47.301 V 644.422 l -22.03,-22.024 v 358.993 l -12,12.629 h -93.31 -19.12 V 651.559 613 h -9.39 v 368.391 l -11.99,12.629 h -93.31 -19.12 V 651.559 613 h -13.92 v 368.391 l -11.99,12.629 h -93.32 -19.11 V 651.559 613 h -9.4 v 368.391 l -11.98,12.629 h -93.32 -19.11 V 651.559 613 h -13.93 v 368.391 l -11.98,12.629 h -93.32 -19.12 V 651.559 613 h -9.4 v 368.391 l -11.98,12.629 h -93.31 -19.11 V 651.559 613 h -13.94 v 368.391 l -11.99,12.629 h -93.31 -19.11 V 651.559 613 h -87.16 v 178.52 l -69.34,69.339 v 118.262 h -11.01 v 50.539 h 32.72 v 43.41 h 13.28 v -43.41 h 184.04 l 43.08,43.09 17.5,-17.5 h 853.09 v -45.67 h 30.46 v 45.67 h 112.74 v -26.89 h -102.06 v -18.78 h 93.32 v -18.478 h -93.32 v -66.09 l 9.08,-9.071 17.82,18.141 z m 37.26,470.768 h -29.16 l 12.31,-27.54 h 29.16 l 6.15,-14.26 h -33.04 c -1.73,3.46 -3.24,6.92 -4.53,10.37 -0.43,0.87 -0.87,1.62 -1.3,2.27 -0.22,0.65 -0.43,1.19 -0.65,1.62 0,0.22 -0.1,0.43 -0.32,0.65 -0.87,2.17 -1.73,4.33 -2.6,6.47 -0.64,1.09 -1.19,2.17 -1.62,3.25 -2.37,5.39 -4.75,10.58 -7.12,15.55 -0.21,0.65 -0.43,1.19 -0.65,1.62 -0.43,0.86 -0.86,1.62 -1.3,2.27 -0.86,1.94 -1.72,3.78 -2.59,5.51 -1.08,2.37 -2.16,4.64 -3.24,6.8 -4.54,8.42 -8.74,16.1 -12.64,23 h 35.97 l 13.28,-29.48 z m 153.9,-41.8 v 14.26 h 17.49 v -14.26 h -17.49"
         style="fill:#1f1a19;fill-opacity:1;fill-rule:evenodd;stroke:none"
         id="path22"
         inkscape:connector-curvature="0" /><path
         d="m 1664.05,1218.23 25.6,-25.59 -187.92,-187.6 h -51.19 z m -881.921,326.58 9.07,-9.07 h 319.141 l -9.07,9.07 -15.56,15.56 H 766.578 Z M 3468.71,697.891 c 0.66,-2.59 0.98,-5.512 0.98,-8.75 V 619.48 h -87.16 v 69.661 c 0,17.281 8.64,25.918 25.92,25.918 h 35.32 c 14.03,0 22.35,-5.727 24.94,-17.168 z m -29.8,4.531 h -25.6 c -12.53,0 -18.79,-6.371 -18.79,-19.113 v -50.547 h 63.51 v 50.547 c 0,3.023 -0.33,5.613 -0.98,7.773 -0.87,3.027 -2.37,5.398 -4.54,7.129 -3.02,2.801 -7.55,4.211 -13.6,4.211 z m -95.58,-149.031 -5.51,5.5 h 5.51 z M 3047.52,54.4297 h 366.11 l 33.06,19.7617 H 3047.52 V 86.5 h 25.92 v 396.57 h 62.21 V 99.4609 h 23.65 V 483.07 h 33.05 V 99.4609 h 54.43 V 483.07 h 12.96 l 83.59,-83.59 V 99.4609 h 40.18 V 359.309 l 46.32,-46.329 V 86.5 h 87.48 v 472.391 h 29.16 V 86.5 h 19.44 V 0 H 3047.52 Z M 1953.7,1019.3 l 41.8,41.46 -30.78,30.78 h -81.32 l -26.9,26.9 h -1.94 l -17.17,17.17 h 30.13 l 31.43,-31.43 h 53.13 l -55.4,55.4 h -83.27 l -40.17,40.17 h 138.99 l 128.63,-128.62 -53.46,-53.45 v -32.09 z m 909.79,259.52 h -31.43 l 31.43,31.42 z m 74.2,348.62 H 2733.9 v 44.38 h 203.79 z m -354.78,-326.27 v -35.31 h -121.83 v -18.15 l -18.14,-18.14 h -88.77 v -36.93 h 110.15 l 35.64,35.63 h 82.95 v -22.35 h -72.26 l -29.81,-29.81 v -20.42 h -140.93 v 169.47 h 42.77 v -59.3 c 0,-3.03 0.97,-5.51 2.92,-7.46 2.15,-2.16 4.75,-3.24 7.76,-3.24 h 0.34 c 3.01,0 5.5,1.08 7.44,3.24 2.17,1.95 3.24,4.43 3.24,7.46 v 59.3 h 154.56 z m -329.83,-6.15 v -123.77 h -5.18 v 87.48 h -16.2 v -49.25 h -7.13 v 85.54 z m -28.51,-123.77 v 21.71 h 7.13 v -21.71 z m 7.13,104 h 16.2 v 12.64 h -16.2 z m -1465.122,229.4 -86.183,86.18 h 169.449 v -7.78 h 88.777 v 7.78 h 224.849 v -86.18 z m 1200.732,-49.58 h 199.91 v -53.46 h -20.09 v 32.08 h -179.82 z m 332.75,-21.38 h -90.07 v 21.38 h 90.07 z m -268.92,410.82 -45.36,-45.35 -32.4,32.39 45.36,45.36 z m 1598.27,-673.26 v -75.49 h 82.95 v 22.68 l -52.81,52.81 z m 144.52,-83.27 h -160.06 v 138.99 h 21.06 z m 95.24,296.45 51.85,-51.83 h -305.53 l 51.83,51.83 z m 13.94,-307.79 -11.02,-11.01 h -86.5 v 22.35 h 34.99 l 9.39,-9.4 h 51.19 z m -744.22,269.89 h -194.08 l 72.9,72.9 h 121.18 z m 341.49,-316.87 h 57.02 v -50.859 h -30.46 l -26.56,26.559 z m 64.8,354.77 h 40.17 l -51.83,-51.83 h -40.18 z m -385.56,-165.88 v -42.12 h -10.36 v 42.12 z m 139.97,6.81 h -71.93 v 29.16 h 71.93 z m -335.99,73.87 v 17.49 h 156.18 v -17.49 z m 89.11,356.72 h 49.57 v -28.51 h -49.57 z m 123.76,0 h 62.52 v -28.51 h -62.52 z M 5201.46,818.09 h 38.55 c 15.12,0 22.69,-7.551 22.69,-22.668 V 728.34 h -83.92 v 67.082 c 0,15.117 7.55,22.668 22.68,22.668 z m -1723.68,1093.82 -96.23,-0.33 -21.37,21.39 h 122.79 l 244.3,-244.3 h -26.24 z m -65.11,-164.6 44.06,44.08 102.7,-102.72 h -88.12 z M 5477.5,874.461 h -249.8 c 4.75,4.758 9.72,9.07 14.9,12.961 15.98,11.887 33.81,19.437 53.46,22.687 h 181.44 z m -412.77,79.059 v -65.77 c 0,-2.809 0.44,-5.512 1.3,-8.09 1.28,-0.23 2.58,-0.34 3.88,-0.34 0.43,0 0.86,0 1.29,0 7.14,0.231 13.29,2.918 18.48,8.102 5.4,5.41 8.09,11.988 8.09,19.777 v 46.321 z m 23.97,60.27 c 2.81,-1.3 5.29,-3.03 7.46,-5.19 3.02,-3.03 5.18,-6.37 6.48,-10.049 0.43,-1.5 0.86,-3.121 1.3,-4.852 0.21,-1.508 0.32,-3.14 0.32,-4.859 v -84.891 c 0,-7.769 -2.71,-14.359 -8.1,-19.758 -5.41,-5.402 -11.99,-8.113 -19.76,-8.113 -1.73,0 -3.35,0.113 -4.87,0.332 -1.73,0.43 -3.35,0.86 -4.86,1.289 -2.16,0.871 -4.1,1.852 -5.83,2.922 -1.51,1.09 -2.92,2.27 -4.21,3.57 -2.38,2.368 -4.22,4.848 -5.51,7.45 -1.73,3.668 -2.59,7.769 -2.59,12.308 v 84.891 c 0,7.781 2.7,14.36 8.1,19.76 5.4,5.4 11.98,8.1 19.77,8.1 3.24,0 6.26,-0.54 9.06,-1.62 1.08,-0.22 2.17,-0.65 3.24,-1.29 z m 2.6,-13.29 c -7.13,-0.22 -13.28,-2.91 -18.48,-8.102 -5.39,-5.398 -8.09,-11.976 -8.09,-19.757 v -4.539 h 33.04 v 24.296 c 0,0.43 0,0.981 0,1.622 -0.21,2.16 -0.53,4.21 -0.96,6.15 -1.3,0.22 -2.7,0.33 -4.21,0.33 -0.44,0 -0.87,0 -1.3,0 z m -417.96,393.34 h -74.2 l 49.25,-49.25 28.51,-28.52 h -55.07 l -100.12,100.12 h 129.28 z m 102.38,-9.41 -14.9,14.91 h 139.96 v -14.91 z m -289.33,-68.36 h -57.35 l -100.11,100.12 h 119.56 l 22.35,-22.35 h -62.21 l 49.25,-49.25 z m -423.14,28.52 28.52,-28.52 h -64.48 l -100.12,100.12 h 129.28 l 22.35,-22.35 H 4014 Z m 24.62,318.16 144.84,-35.31 h -948.02 v 35.31 z m 160.38,-318.16 28.52,-28.52 h -51.53 l -100.11,100.12 h 129.27 l 22.37,-22.35 H 4199 l 49.25,-49.25"
         style="fill:#242322;fill-opacity:1;fill-rule:evenodd;stroke:none"
         id="path24"
         inkscape:connector-curvature="0" /><path
         d="M 3893.8,879.66 V 669.051 h -93.31 V 879.66 Z m 138.35,-210.609 h -93.31 V 879.66 h 93.31 z M 4304.31,879.66 V 669.051 h -93.32 V 879.66 Z M 4165.97,669.051 h -93.32 V 879.66 h 93.32 z m 178.83,0 V 879.66 h 93.32 V 669.051 Z m 231.66,0 h -93.31 V 879.66 h 93.31 z m 133.81,0 h -93.31 V 879.66 h 93.31 z m -61.88,675.539 h 74.2 l 28.51,-28.52 h -74.2 z m -128.3,0 28.51,-28.52 h -62.21 l -28.51,28.52 z m -428.32,-28.52 -28.52,28.52 h 64.8 l 28.51,-28.52 z m 185,0 -28.52,28.52 h 77.76 l 28.51,-28.52 h -77.75"
         style="fill:#383737;fill-opacity:1;fill-rule:evenodd;stroke:none"
         id="path26"
         inkscape:connector-curvature="0" /><path
         d="m 3800.49,651.559 h 93.31 v -65.457 h -93.31 z m 138.35,0 h 93.31 v -65.457 h -93.31 z m 272.15,0 h 93.32 v -65.457 h -93.32 z m -138.34,0 h 93.32 v -65.457 h -93.32 z M 4438.12,613 v -26.898 h -93.32 v 65.457 h 93.32 z m 138.34,0 v -26.898 h -93.31 v 65.457 h 93.31 z m 133.81,0 v -26.898 h -93.31 v 65.457 h 93.31 z m 0,355.102 h -93.31 v 25.918 h 93.31 z m -133.81,25.918 v -25.918 h -93.31 v 25.918 z m -138.34,0 v -25.918 h -93.32 v 25.918 z m -133.81,-25.918 h -93.32 v 25.918 h 93.32 z m -138.34,0 h -93.32 v 25.918 h 93.32 z m -133.82,0 h -93.31 v 25.918 h 93.31 z m -138.35,0 h -93.31 v 25.918 h 93.31 z m 881.92,416.328 h 125.06 v -51.83 h -73.22 z m -102.38,9.41 49.25,-49.25 h -74.2 l -49.25,49.25 z m -215.46,-49.25 -49.25,49.25 h 62.21 l 49.25,-49.25 z m -329.83,0 h -64.8 l -49.25,49.25 h 64.8 z m 197.96,0 h -77.76 l -49.25,49.25 h 77.77 l 49.24,-49.25"
         style="fill:#1f1d1d;fill-opacity:1;fill-rule:evenodd;stroke:none"
         id="path28"
         inkscape:connector-curvature="0" /><path
         d="m 1797.21,158.762 -1.94,-6.492 c -122.9,2.589 -231.88,47.519 -326.92,134.789 2.38,-0.661 4.87,-1.188 7.46,-1.618 93.74,-82.73 200.87,-124.953 321.4,-126.679 z m 54.44,244.937 c -2.81,1.301 -5.73,2.59 -8.75,3.891 -11.45,4.531 -24.74,8.09 -39.85,10.691 -50.12,6.481 -89.21,-9.722 -117.29,-48.601 -56.81,-66.969 -140.61,-83.282 -251.42,-48.918 5.83,3.457 12.31,7.867 19.44,13.277 58.31,-14.687 107.34,-14.687 147.09,0 32.62,13.82 58.21,32.941 76.79,57.352 43.84,44.281 91.91,59.507 144.18,45.679 15.55,-3.672 28.94,-9.941 40.17,-18.789 2.38,-7.562 0.97,-13.511 -4.21,-17.82 -1.94,1.07 -4,2.16 -6.15,3.238 z m -125.07,627.581 v -57.018 h -189.86 l 57.03,57.018 z m 59.94,45.04 v -31.43 h 13.61 v 17.82 l 87.48,-87.48 v -0.968 h -19.12 v 9.707 h -9.72 v -9.707 h -31.43 v 28.178 h -24.94 v -28.178 h -58.32 v 73.538 h -142.56 l 22.36,22.36 h 0.64 l 6.49,6.48 h -0.65 l 46.32,46.34 h 0.65 l 8.75,8.74 h -0.32 l 22.68,22.68 z m -282.85,118.58 27.22,-27.22 -29.16,-29.16 -48.93,48.93 58.97,58.96 21.71,-21.7 z M 3343.33,553.391 v 5.5 h 40.18 v -45.68 z m 398.19,462.989 v -43.419 h -32.4 V 956.43 h 32.4 v -80.02 l 23.33,-23.328 -36.29,-36.613 -42.77,42.441 v 157.47 z m -105.62,-49.9 h 38.23 V 898.109 H 3635.9 Z M 1962.78,658.039 c 0.64,6.481 1.29,12.852 1.94,19.121 h 113.72 13.29 v -19.121 z m -149.37,501.541 h 83.27 l 55.4,-55.4 h -53.13 l -31.43,31.43 h -30.13 z m 41.15,-41.14 h 1.94 l 26.9,-26.9 h 81.32 l 30.78,-30.78 -41.8,-41.46 z m -19.44,-155.838 c 30.68,-9.641 52.81,-21.422 66.42,-35.332 19.44,-13.809 34.13,-31.09 44.07,-51.829 7,-33.839 18.45,-54.363 34.34,-61.562 -33.7,-31.297 -54.55,-70.617 -62.53,-117.93 -6.05,-54.648 -6.05,-109.301 0,-163.949 -21.6,-14.262 -41.26,-37.148 -58.97,-68.68 -21.17,-2.172 -44.82,-0.871 -70.95,3.891 45.57,15.328 66.3,33.898 62.2,55.719 -13.61,109.941 2.05,197.308 46.98,262.109 22.03,82.731 -50.87,138.57 -218.7,167.52 55.49,9.75 107.87,13.101 157.14,10.043 z m 302.61,-154.883 c -39.09,-36.5 -58.97,-76.778 -59.61,-120.848 h -112.1 c 9.5,62.211 31.21,102.488 65.12,120.848 z m 659.34,-28.5 -13.6,13.601 -104.98,-104.98 13.6,-13.602 z M 1954.68,562.141 v 42.437 h 309.09 l 57.99,58.004 v 140.277 l 44.07,44.063 23.65,-23.641 -28.19,-28.191 V 677.801 h 43.42 v -8.75 h -64.8 v -65.77 h 248.51 v 41.469 h 31.1 v 23 l 1.3,1.301 h -45.69 l 8.75,8.75 h 74.2 l 140.93,140.937 v 45.364 h -98.49 v 36.929 h 182.41 v -63.82 L 2617.9,572.18 h -354.13 v -10.039 z m 628.23,703.719 v -37.59 h -82.95 l -35.64,-35.63 h -110.15 v 36.93 h 88.77 l 18.14,18.14 v 18.15 z m -102.07,-110.17 v 20.42 l 29.81,29.81 h 72.26 v -16.21 l -34.02,-34.02 z m -232.94,53.79 h -16.2 v 49.25 h 16.2 z m 0,-16.52 v -21.71 h -16.2 v 21.71 z m -16.2,82.29 v 12.64 h 16.2 v -12.64 z m 1507.24,-70.31 h 82.61 l 45.04,-45.03 h -82.63 z m -109.53,-33.69 h 30.14 l 52.81,-52.81 v -22.68 h -82.95 z m -149.03,-141.59 v 58.32 h 57.02 v -58.32 z m -165.57,185.65 h 65.78 l -61.88,-61.87 h -3.9 z m -57.34,-113.08 h -95.25 l 65.44,65.13 47.63,-47.63 z m -29.81,123.13 h 71.93 v -81 l -13.28,-13.29 -58.65,58.64 z m 56.05,-137.38 v -58.32 h -105.3 l -58.31,58.32 z m -124.09,88.45 v 42.12 h 24.95 c 5.83,0 10.69,-2.16 14.58,-6.48 4.1,-4.1 6.15,-8.86 6.15,-14.26 v -0.64 c 0,-5.62 -2.05,-10.48 -6.15,-14.58 -3.89,-4.11 -8.75,-6.16 -14.58,-6.16 z m -196.02,122.8 h 156.18 v 17.49 H 2963.6 v 15.88 h 163.95 v -53.78 H 2963.6 Z m 1911.26,-551.449 -26.56,0.321 -104,-103.68 v 161.359 l 47.3,47.301 -34.02,34.02 v 104 h 30.46 v -73.543 l 86.82,-86.84 z M 3785.59,1087.98 v -22.35 h 86.5 l 11.02,11.01 3.88,-3.89 -43.08,-43.09 h -184.04 v 43.41 h -13.28 v -43.41 h -32.72 v 58.32 h 160.06 z m 971.99,-32.73 h 30.46 v -45.67 h -30.46 z m 143.2,-26.89 v -34.34 h 46.66 v -59.938 h -121.82 l -17.82,-18.141 -9.08,9.071 v 66.09 h 93.32 v 18.478 h -93.32 v 18.78 h 102.06"
         style="fill:#505159;fill-opacity:1;fill-rule:evenodd;stroke:none"
         id="path30"
         inkscape:connector-curvature="0" /><path
         d="m 1170.28,899.73 h 484.7 c 105.63,-19.429 135.11,-68.46 88.45,-147.089 -28.94,-61.129 -59.19,-118.903 -90.72,-173.332 -37.58,-64.59 -82.19,-126.789 -133.81,-186.629 -25.71,-25.481 -47.41,-45.039 -65.12,-58.641 -7.13,-5.41 -13.61,-9.82 -19.44,-13.277 110.81,-34.364 194.61,-18.051 251.42,48.918 28.08,38.879 67.17,55.082 117.29,48.601 15.11,-2.601 28.4,-6.16 39.85,-10.691 3.02,-1.301 5.94,-2.59 8.75,-3.891 l -4.22,-14.578 c -0.86,0.43 -1.83,0.859 -2.91,1.301 -3.46,1.508 -6.81,2.797 -10.05,3.887 -25.7,9.711 -44.82,14.363 -57.35,13.929 -27.64,-1.078 -54.86,-16.847 -81.64,-47.308 -57.46,-66.09 -133.7,-88.559 -228.74,-67.391 3.02,-2.809 6.04,-5.508 9.07,-8.098 -2.59,0.43 -5.08,0.957 -7.46,1.618 95.04,-87.27 204.02,-132.2 326.92,-134.789 1.08,0 2.27,0 3.56,0 5.4,-9.071 1.95,-18.141 -10.36,-27.211 -44.07,-0.43 -89,6.8 -134.79,21.711 -109.08,36.07 -195.04,93.41 -257.9,172.039 -3.67,19.66 3.24,26.781 20.74,21.382 129.81,96.77 212.65,235.008 248.5,414.719 11.45,46.879 -1.94,85.11 -40.18,114.699 h -424.43 z m -892.616,376.82 v -10.05 l 155.195,155.2 h -57.996 l -97.199,-97.2 z m 0,-88.78 v -9.39 l 243.32,243.32 H 474.332 L 277.664,1225.04 Z m 56.051,229.72 h -58.32 v -58.32 z m -8.102,138.66 h 196.672 v 29.81 H 325.613 Z m 929.877,-360.27 -37.58,-37.27 45.03,-45.04 37.59,37.27 z m 191.8,270.2 h -312.33 l 156.17,-156.16 z m -137.37,-261.78 13.29,-30.46 149.36,149.36 -28.51,14.91 -0.65,0.33 -15.88,29.8 -149.36,-149.36 z m -138.99,-14.59 57.99,57.68 -218.7,218.69 H 894.555 Z m 2280.61,-160.05 h 28.84 v -24.3 l 26.56,-26.559 h -29.47 l -24.31,24.289 h -1.62 z M 2404.71,677.801 h 179.17 l -8.75,-8.75 -17.49,-17.492 h -59.62 v 9.722 h -93.31 v 7.77 z m 229.71,186.301 H 2430.3 l -46,46.007 19.76,20.082 h 230.36 z M 2078.44,677.16 h -113.72 c -0.65,-6.269 -1.3,-12.64 -1.94,-19.121 h -31.75 v 7.121 c 0.33,48.211 20.96,91.41 61.88,129.602 11.75,10.859 25.14,21.34 40.18,31.429 h 126.35 c -7.77,-6.05 -15.01,-12.211 -21.71,-18.472 h -106.59 c -33.91,-18.36 -55.62,-58.637 -65.12,-120.848 h 112.1 c 0,-3.242 0.11,-6.473 0.32,-9.711 z m 243.32,125.699 -6.48,-6.468 v 45.019 l 28.2,27.879 22.35,-22.367 z m 356.73,61.243 v 66.089 h 153.25 v 149.369 h 75.16 V 826.191 L 2626.32,545.602 h -362.55 v 16.539 10.039 h 354.13 l 265.03,265.031 v 63.82 h -182.41 v -36.929 z m 101.73,482.428 -41.47,41.48 v 31.42 h 184.68 l -72.9,-72.9 z m -180.14,-46.66 v 19.77 h 223.56 l -40.83,-40.82 h -161.67 z m -260.17,-144.18 h -11.67 v 176.91 h 239.12 l 15.55,-15.55 v -15.88 l -23.97,23.99 h -154.56 v -59.3 c 0,-3.03 -1.07,-5.51 -3.24,-7.46 -1.94,-2.16 -4.43,-3.24 -7.44,-3.24 h -0.34 c -3.01,0 -5.61,1.08 -7.76,3.24 -1.95,1.95 -2.92,4.43 -2.92,7.46 v 59.3 h -42.77 z m -108.21,53.79 h 16.2 v -16.52 h -23.33 v -21.71 h -14.58 v 138.35 h 43.09 v -14.58 h -28.51 v -85.54 z M 143.531,741.949 V 1639.1 h 68.688 v -82.95 h 32.078 l 48.598,68.37 h 43.089 v 34.02 h 31.106 v -34.02 h 85.539 v 34.02 h 31.098 v -34.02 h 50.546 l 68.364,-68.37 h 72.894 l 73.223,-73.21 h 430.596 v 73.21 h 384.91 v -12.63 h 75.16 l 51.84,-51.84 h -11.33 l 26.24,-26.24 h -27.54 l -65.45,65.45 h -97.52 v -93.31 l -7.45,-7.45 -55.73,-55.74 27.87,-27.86 27.86,27.86 7.45,7.47 v -48.61 l -294.19,-294.19 h -80.03 v 51.84 h -21.71 v 47.3 L 791.852,1466.08 H 596.477 L 304.555,1174.16 v -291.922 -104 l -51.52,-51.508 v 712.79 l -0.965,0.97 h 295.485 l 13.285,24.3 -13.285,13.93 -335.336,-0.32 V 726.73 693.031 h -68.688 z m 3595.409,462.991 45.02,-45.03 h 82.63 l -45.04,45.03 z m -153.91,127.66 66.74,66.74 h 202.5 l 14.9,-14.91 h -201.85 l -51.83,-51.83 z m 235.55,-244.62 h -46.65 l -139,138.99 h -21.06 v 27.55 h 40.17 l 31.11,-31.1 h 147.1 l 78.72,-78.74 h -147.09 z m -505.77,127.33 v -61.87 h 3.9 l 61.88,61.87 z m 67.4,1.62 10.05,10.04 h -10.05 z m 162.97,167.5 14.91,14.91 h 40.16 l -14.9,-14.91 z m -287.71,-282.2 17.82,17.5 -47.63,47.63 -65.44,-65.13 z m -29.81,123.13 v -35.65 l 58.65,-58.64 13.28,13.29 v 81 29.16 h 10.36 v 109.51 h 72.26 v -109.51 h 48.28 l -146.78,-146.78 v -19.76 H 3120.1 l -10.7,10.69 50.22,50.22 v 27.54 h 24.95 c 5.83,0 10.69,2.05 14.58,6.16 4.1,4.1 6.15,8.96 6.15,14.58 v 0.64 c 0,5.4 -2.05,10.16 -6.15,14.26 -3.89,4.32 -8.75,6.48 -14.58,6.48 h -24.95 v 6.81 z M 4710.27,913.352 v 80.668 l 12,-12.629 V 613 h -12 v 38.559 17.492 210.609 z M 4588.45,613 h -11.99 v 381.02 l 11.99,-12.629 z m 9.39,38.559 h 19.12 v -65.457 h 93.31 V 561.16 H 4597.84 V 613 Z m -114.69,0 v -65.457 h 93.31 V 561.16 H 4464.03 V 613 651.559 Z m -45.03,261.793 v 80.668 l 11.99,-12.629 V 613 h -11.99 v 38.559 17.492 210.609 z M 4344.8,651.559 v -65.457 h 93.32 V 561.16 H 4325.69 V 613 651.559 Z m -40.49,17.492 V 994.02 l 11.98,-12.629 V 613 h -11.98 v 38.559 z m 0,-82.949 V 561.16 h -112.43 v 90.399 h 19.11 v -65.457 z m -138.34,327.25 v 80.668 l 11.98,-12.629 V 613 h -11.98 v 38.559 17.492 210.609 z M 3919.73,651.559 h 19.11 v -65.457 h 93.31 V 561.16 h -93.31 v 24.942 h -19.11 V 613 Z M 4053.53,613 v 38.559 h 19.12 v -65.457 h 93.32 V 561.16 H 4053.53 Z M 3893.8,669.051 V 994.02 l 11.99,-12.629 V 613 h -11.99 v 38.559 z m -112.42,-17.492 h 19.11 v -65.457 h 93.31 V 561.16 H 3781.38 V 613 Z M 3694.22,613 h -26.9 v 175.93 l -42.44,42.449 v 29.48 l 69.34,-69.339 V 613"
         style="fill:#100f0d;fill-opacity:1;fill-rule:evenodd;stroke:none"
         id="path32"
         inkscape:connector-curvature="0" /><path
         d="m 3800.49,669.051 h 93.31 v -17.492 h -93.31 z m 231.66,-17.492 h -93.31 v 17.492 h 93.31 z m 272.16,0 h -93.32 v 17.492 h 93.32 z m -138.34,0 h -93.32 v 17.492 h 93.32 z m 272.15,0 h -93.32 v 17.492 h 93.32 z m 138.34,0 h -93.31 v 17.492 h 93.31 z m 40.5,0 v 17.492 h 93.31 v -17.492 h -93.31"
         style="fill:#2d2b2b;fill-opacity:1;fill-rule:evenodd;stroke:none"
         id="path34"
         inkscape:connector-curvature="0" /><path
         d="m 3120.1,1087.98 58.31,-58.32 h 105.3 v -26.57 h -118.25 l -90.72,90.73 64.15,64.14 v 96.56 h 88.77 v -29.16 h -68.04 v -6.81 h -10.36 v -42.12 h 10.36 v -27.54 l -50.22,-50.22 10.7,-10.69"
         style="fill:#43444b;fill-opacity:1;fill-rule:evenodd;stroke:none"
         id="path36"
         inkscape:connector-curvature="0" /><path
         d="m 341.168,1031.28 v -30.13 h -10.367 v 30.13 z m 81.648,390.42 h 10.043 L 277.664,1266.5 v 10.05 z m -145.152,-233.93 233.93,233.93 h 9.39 l -243.32,-243.32 z m 61.231,-58 v -87.48 h -10.36 v 87.48 z m 971.025,74.53 134.14,133.81 28.51,-14.91 -149.36,-149.36 z m -149.69,68.36 18.15,-18.14 -20.09,-20.09 -18.14,18.15 z m 9.4,9.08 -164.27,164.26 4.86,20.08 218.7,-218.69 -57.99,-57.68 -11.34,27.22 37.58,37.27 z m -68.36,263.07 9.07,-9.07 H 791.199 l -9.07,9.07 z m 346.02,-78.73 -156.16,-156.16 -2.27,30.78 105.3,105.3 z m -177.87,-84.56 54.11,54.44 h 40.82 l -74.52,-74.85 z M 118.578,1593.74 V 766.898 L 82.293,803.18 v 460.73 H 71.2813 v 143.53 H 82.293 v 46.02 L 0,1535.74 v 22.03 h 101.41 v 24.31 H 0 v 10.04 l 1.62109,1.62 z m 215.137,-176.25 -58.32,-58.32 v 58.32 z m -80.68,-690.76 -23.316,13.282 V 1464.79 H 560.84 l -13.285,-24.3 H 252.07 l 0.965,-0.97 z M 3585.03,1332.6 h 335.99 l 15.22,-15.23 H 3569.8 Z m 0.32,51.83 14.9,14.91 h 19.13 l -81.98,-81.97 h -59.28 l 15.22,15.23 h 40.18 l 51.83,51.83"
         style="fill:#58595b;fill-opacity:1;fill-rule:evenodd;stroke:none"
         id="path38"
         inkscape:connector-curvature="0" /><path
         d="m 1421.05,1605.73 h -47.3 v 30.78 h 47.3 z m 23.66,-8.75 v 84.56 h 154.54 l -84.56,-84.56 z m 706.96,79.39 10.69,10.36 64.15,-64.15 -35.96,-35.65 -64.15,64.16 13.28,13.29 51.19,-51.2 11.99,12 z m 1328.71,-588.39 v -58.32 h -28.84 v 58.32 z m -98.17,128.95 v 10.04 h 10.05 z"
         style="fill:#171e28;fill-opacity:1;fill-rule:evenodd;stroke:none"
         id="path40"
         inkscape:connector-curvature="0" /><path
         d="m 1225.03,921.781 h -105.3 v 20.071 h 105.3 z m 572.18,-763.019 c -120.53,1.726 -227.66,43.949 -321.4,126.679 -3.03,2.59 -6.05,5.289 -9.07,8.098 95.04,-21.168 171.28,1.301 228.74,67.391 26.78,30.461 54,46.23 81.64,47.308 12.53,0.434 31.65,-4.218 57.35,-13.929 3.24,-1.09 6.59,-2.379 10.05,-3.887 1.08,-0.442 2.05,-0.871 2.91,-1.301 1.52,-0.43 2.92,-0.98 4.22,-1.621 z m 2.92,903.948 v -17.82 h -13.61 v 31.43 z m -3.57,558.89 h 44.07 c 21.6,0 32.4,-10.79 32.4,-32.39 v -86.84 h -108.86 v 86.84 c 0,21.6 10.8,32.39 32.39,32.39 z m 183.39,-807.721 c -15.89,7.199 -27.34,27.723 -34.34,61.562 -9.94,20.739 -24.63,38.02 -44.07,51.829 -13.61,13.91 -35.74,25.691 -66.42,35.332 25.92,-1.571 50.97,-4.922 75.17,-10.043 l 77.11,-77.118 v -49.25 h 7.13 c -5.09,-3.972 -9.95,-8.082 -14.58,-12.312 z m 187.59,735.801 -37.9,37.91 -50.88,-50.87 -327.23,327.23 h 12.64 l 17.49,-17.49 h 120.85 l 17.5,17.49 h 3.24 l -0.97,-15.86 -15.23,-15.24 h -67.07 l 257.58,-257.58 33.7,33.7 59.29,-59.29 z m -77.43,19.12 -264.07,264.05 h -17.49 l 272.81,-272.8 z m 61.56,107.57 51.19,-51.19 -11.99,-12 -51.19,51.2 z m -152.93,200.54 -45.36,-45.36 32.4,-32.39 45.36,45.35 7.13,-7.12 -45.36,-45.69 -43.74,43.75 45.36,45.68 z m 612.35,35.65 H 2455.9 l -51.52,-51.52 h -85.53 l 19.76,-19.76 h 271.19 l 21.38,21.38 h -69.98 z m 68.37,-35.31 -45.04,-45.04 h -322.05 l -45.04,45.04 h 136.41 l 47.94,47.95 h 190.52 l -47.96,-47.95 h 85.22"
         style="fill:#3c3c42;fill-opacity:1;fill-rule:evenodd;stroke:none"
         id="path42"
         inkscape:connector-curvature="0" /><path
         d="m 2619.19,1491.04 39.21,39.19 39.2,-39.19 z m 239.11,72.89 v -72.89 h -41.79 l -72.9,72.89 z m -459.75,-59.28 v 48.91 H 2545 l -62.53,-62.52 h -70.31 z m -231.33,-49.58 h -219.67 v 10.37 h -241.38 l -26.24,26.24 h 11.33 598.11 l 26.24,-26.24 h -15.55 v -10.37 h -90.07 -15.23 v 10.37 h -27.54 v -10.37"
         style="fill:#3c3c43;fill-opacity:1;fill-rule:evenodd;stroke:none"
         id="path44"
         inkscape:connector-curvature="0" /><path
         d="m 1119.73,921.781 h 105.3 V 899.73 h -105.3 z M 341.168,1031.28 h -10.367 v -30.13 h 10.367 z m -2.273,98.49 h -10.36 v -87.48 h 10.36 z m 1164.775,65.13 29.81,29.81 -21.71,21.7 -58.97,-58.96 48.93,-48.93 29.16,29.16 z m 58,26.24 -31.43,-31.43 27.87,-27.85 -48.61,-48.61 -71.92,71.28 80.35,80.35 z M 1005.36,1446 h -75.489 l 202.179,-201.53 27.54,-27.54 11.34,-27.22 -276.375,276.37 h 115.665 z m 285.77,-136.08 -156.17,156.16 h 312.33 L 1394.16,1446 h -60.59 -150.01 l 75.17,-75.17 30.13,-30.13 z m 1107.42,194.73 -27.87,27.86 v 31.42 h 184.69 L 2545,1553.56 h -146.45 z m -1649.796,-21.71 17.824,21.71 h 396.892 v 86.18 l 15.88,-34.68 v -73.21 z M 304.555,882.238 v 291.922 l 291.922,291.92 h 195.375 l -10.043,-29.16 H 608.145 L 345.383,1174.16 v -44.39 h 16.195 v -87.48 h -16.195 v -11.01 h 18.465 v -30.13 H 345.383 V 912.051 Z M 560.84,1464.79 H 229.719 V 740.012 l -17.5,-13.282 v 751.67 l 335.336,0.32 z m 1386.71,-9.72 h 19.76 v -21.38 h 179.82 v -32.08 h -178.85 l -20.73,20.73 z m 262.44,0 v -21.38 h 90.07 v -32.08 h -105.3 v 53.46 h 15.23"
         style="fill:#1a1918;fill-opacity:1;fill-rule:evenodd;stroke:none"
         id="path46"
         inkscape:connector-curvature="0" /><path
         d="m 2409.24,863.121 -29.16,29.16 -16.2,-16.203 29.16,-29.156 z m 261.47,60.918 h -23 V 879.66 h 23 z m -240.41,-59.937 -40.82,-40.821 -23.65,23.641 -22.35,22.367 -28.2,-27.879 v -15.219 h -20.41 v 30.778 l 94.93,94.929 h 417.96 V 1139.5 l 23.98,16.19 v -76.13 -149.369 h -153.25 v -66.089 h -44.07 v 66.089 h -230.36 l -19.76,-20.082 46,-46.007"
         style="fill:#393940;fill-opacity:1;fill-rule:evenodd;stroke:none"
         id="path48"
         inkscape:connector-curvature="0" /><path
         d="m 2404.71,669.051 v -7.77 h 93.31 v -9.722 h 59.62 l 17.49,17.492 h 45.69 l -1.3,-1.301 v -23 h -31.1 v -41.469 h -248.51 v 65.77 z m 392.36,110.168 -104.98,-104.981 -13.6,13.602 104.98,104.98 z M 1954.68,604.578 v -42.437 h -23.65 v 42.437 h 23.65"
         style="fill:#424249;fill-opacity:1;fill-rule:evenodd;stroke:none"
         id="path50"
         inkscape:connector-curvature="0" /><path
         d="m 2315.28,796.391 6.48,6.468 V 662.582 l -57.99,-58.004 h -309.09 v 11.981 h 309.09 l 51.51,51.851 v 127.981"
         style="fill:#5f616b;fill-opacity:1;fill-rule:evenodd;stroke:none"
         id="path52"
         inkscape:connector-curvature="0" /><path
         d="m 4044.13,613 h -11.98 v 381.02 l 11.98,-12.629 V 613"
         style="fill:#191819;fill-opacity:1;fill-rule:evenodd;stroke:none"
         id="path54"
         inkscape:connector-curvature="0" /><path
         d="m 3624.88,831.379 -147.41,147.422 h 29.47 l 117.94,-117.942 v -29.48"
         style="fill:#8b8b85;fill-opacity:1;fill-rule:evenodd;stroke:none"
         id="path56"
         inkscape:connector-curvature="0" /><path
         d="m 3938.84,561.16 h -19.11 v 24.942 h 19.11 V 561.16"
         style="fill:#33333a;fill-opacity:1;fill-rule:evenodd;stroke:none"
         id="path58"
         inkscape:connector-curvature="0" /><path
         d="m 3383.51,359.309 v 60.91 l 46.32,-46.328 V 312.98 Z m 0,199.582 h 46.32 v -92.012 l -46.32,46.332 z M 3135.65,483.07 h -62.21 v 75.821 h 171.39 l 98.5,-98.493 V 399.48 l -83.59,83.59 h -12.96 v 51.852 h -54.43 V 483.07 h -33.05 v 51.852 h -23.65 V 483.07"
         style="fill:#1b1918;fill-opacity:1;fill-rule:evenodd;stroke:none"
         id="path60"
         inkscape:connector-curvature="0" /><path
         d="m 3047.52,74.1914 h 399.17 l -33.06,-19.7617 h -366.11 z m 295.81,386.2066 40.18,-40.179 V 99.4609 h -40.18 V 399.48 Z m -96.55,22.672 V 99.4609 h -54.43 V 534.922 h 54.43 z m -87.48,0 V 99.4609 h -23.65 V 534.922 h 23.65 V 483.07"
         style="fill:#3f3f46;fill-opacity:1;fill-rule:evenodd;stroke:none"
         id="path62"
         inkscape:connector-curvature="0" /><path
         d="m 3485.89,699.18 c 0.64,-3.231 0.97,-6.91 0.97,-11.02 V 601.34 H 3378 l -6.49,6.48 h 108.87 v 86.828 c 0,4.102 -0.33,7.774 -0.98,11.012 -1.07,3.672 -2.48,6.922 -4.2,9.719 5.4,-3.449 8.96,-8.848 10.69,-16.199"
         style="fill:#c3c1bc;fill-opacity:1;fill-rule:evenodd;stroke:none"
         id="path64"
         inkscape:connector-curvature="0" /><path
         d="m 1169.63,1281.74 27.54,-27.54 -37.58,-37.27 -27.54,27.54 8.1,8.11 18.14,-18.15 20.09,20.09 -18.15,18.14 z m 224.53,164.26 -105.3,-105.3 -30.13,30.13 10.69,10.69 20.41,-20.41 74.52,74.85 h -40.82 l 10.04,10.04 h 60.59"
         style="fill:#2c2a2a;fill-opacity:1;fill-rule:evenodd;stroke:none"
         id="path66"
         inkscape:connector-curvature="0" /><path
         d="m 1508.21,1430.13 v -55.74 l -27.86,-27.86 -27.87,27.86 z m -252.72,-234.25 45.04,-45.04 -37.59,-37.27 -45.03,45.04 z m 188.57,142.23 -134.14,-133.81 -31.75,14.58 149.36,149.36 15.88,-29.8 z m -342.79,206.7 H 782.129 l -15.551,15.56 h 319.132 z m -420.875,46.02 86.183,-86.18 -17.824,-21.71 -73.223,73.21 z m -536.864,2.91 V 741.949 l -24.953,24.949 V 1593.74 Z M 791.852,1466.08 1119.73,1138.2 h -0.32 l -40.5,3.57 -295.16,295.15 h -1.941 l 10.043,29.16"
         style="fill:#3e3d3f;fill-opacity:1;fill-rule:evenodd;stroke:none"
         id="path68"
         inkscape:connector-curvature="0" /><path
         d="m 1508.21,1374.39 v 55.74 l 7.45,7.45 v -55.72 l -7.45,-7.47"
         style="fill:#2c2b17;fill-opacity:1;fill-rule:evenodd;stroke:none"
         id="path70"
         inkscape:connector-curvature="0" /><path
         d="m 0,1582.08 h 101.41 v -24.31 H 0 v 24.31"
         style="fill:#727475;fill-opacity:1;fill-rule:evenodd;stroke:none"
         id="path72"
         inkscape:connector-curvature="0" /><path
         d="m 1485.85,910.762 h -183.38 l -51.52,51.508 h 234.9 z m 178.2,307.468 -213.51,-213.19 h 51.19 l 187.92,187.6 z m -146.12,46.65 -80.35,-80.35 71.92,-71.28 48.61,48.61 -27.87,27.85 31.43,31.43 z m 246.24,324.33 v -86.84 h 108.86 v 86.84 c 0,21.6 -10.8,32.39 -32.4,32.39 h -44.07 c -21.59,0 -32.39,-10.79 -32.39,-32.39 z m -319.46,7.77 h 69.98 l 84.56,84.56 h -154.54 z m -23.66,39.53 h -47.3 v -30.78 h 47.3 z m 481.46,209.95 h -120.85 l -17.49,17.49 h 155.84 z M 3429.83,558.891 h -92.01 l 92.01,-92.012 z m 38.88,139 c -2.59,11.441 -10.91,17.168 -24.94,17.168 h -35.32 c -17.28,0 -25.92,-8.637 -25.92,-25.918 V 619.48 h 87.16 v 69.661 c 0,3.238 -0.32,6.16 -0.98,8.75 z m 11.67,-3.243 V 607.82 h -108.87 l 6.49,-6.48 h 108.86 v 86.82 c 0,4.11 -0.33,7.789 -0.97,11.02 -1.73,7.351 -5.29,12.75 -10.69,16.199 1.72,-2.797 3.13,-6.047 4.2,-9.719 0.65,-3.238 0.98,-6.91 0.98,-11.012 z m -1087.34,152.274 -29.16,29.156 16.2,16.203 29.16,-29.16 z M 1987.4,985.59 v 32.09 l 53.46,53.45 -128.63,128.62 H 1773.24 Z M 3457.05,691.082 c 0.65,-2.16 0.98,-4.75 0.98,-7.773 v -50.547 h -63.51 v 50.547 c 0,12.742 6.26,19.113 18.79,19.113 h 25.6 c 6.05,0 10.58,-1.41 13.6,-4.211 2.17,-1.731 3.67,-4.102 4.54,-7.129 z M 2670.71,879.66 h -23 v 44.379 h 23 z m 128.3,-60.922 -140.93,-140.937 H 2361.29 V 795.09 l 69.01,69.012 h 368.71 z m -179.82,672.302 h 78.41 l -39.2,39.19 z m -19.11,-191.17 21.06,-21.05 h 161.67 l 40.83,40.82 h -223.56 z m 231.98,-21.05 h 31.43 v 31.42 z m -51.84,67.71 h 70.31 l 72.9,72.9 h -184.68 v -31.42 z m 78.08,217.4 h -114.69 l 72.9,-72.89 h 41.79 z m -768.19,4.87 -8.75,-8.75 -272.81,272.8 h 17.49 z m 119.88,-259.2 v -138.35 h 43.09 v 138.35 z m 118.25,23 v -176.91 h 220.65 l 34.02,34.02 v 127.34 l -15.55,15.55 z m 42.44,199.91 41.48,-41.47 h 70.31 l 72.9,72.89 h -184.69 z m 260.5,330.15 -21.38,-21.38 h -271.19 l -19.76,19.76 h 85.53 l 51.52,51.52 h 155.19 l -49.89,-49.9 z m -592.91,-25.27 -43.74,43.74 -45.36,-45.68 43.74,-43.75 z m 6.8,-33.38 -35.96,-35.63 181.44,-181.45 35.96,35.65 z m 1809.2,-404.67 h -202.5 l -81.97,-81.97 h 366.44 z m -715.38,-52.81 v 72.9 h -121.18 l -72.9,-72.9 z m 917.56,69.66 h -129.28 l 100.12,-100.12 h 129.27 z m -519.05,-98.82 81.98,81.97 h -59.29 l -81.97,-81.97 z m -398.51,-62.85 v -96.56 l -64.15,-64.14 90.72,-90.73 h 118.25 v 104.65 l 146.78,146.78 h -48.28 v 109.51 h -72.26 v -109.51 z m -11.34,78.08 H 2963.6 v -53.78 h 163.95 z m -25.27,335.66 h 74.19 v -40.82 h 62.52 v 61.23 h 90.08 l -188.56,188.58 h -546.27 l 47.96,47.95 h -190.52 l -47.94,-47.95 h -285.77 l -29.48,-29.82 131.54,-131.54 469.47,0.32 44.4,-44.39 v -44.38 h 203.79 v 79.7 h 63.82 l 51.2,-51.19 v -28.51 h 49.57 z m 310.39,79.05 58.64,-58.64 h 88.12 l -102.7,102.72 z M 5064.73,953.52 h 33.04 v -46.321 c 0,-7.789 -2.69,-14.367 -8.09,-19.777 -5.19,-5.184 -11.34,-7.871 -18.48,-8.102 -0.43,0 -0.86,0 -1.29,0 -1.3,0 -2.6,0.11 -3.88,0.34 -0.86,2.578 -1.3,5.281 -1.3,8.09 z m -1581.76,979.45 h -122.79 l 244.29,-244.3 h 122.8 z m 1602.49,-917.89 c -2.8,1.08 -5.82,1.62 -9.06,1.62 -7.79,0 -14.37,-2.7 -19.77,-8.1 -5.4,-5.4 -8.1,-11.979 -8.1,-19.76 v -84.891 c 0,-4.539 0.86,-8.64 2.59,-12.308 1.29,-2.602 3.13,-5.082 5.51,-7.45 1.29,-1.3 2.7,-2.48 4.21,-3.57 1.73,-1.07 3.67,-2.051 5.83,-2.922 1.51,-0.429 3.13,-0.859 4.86,-1.289 1.52,-0.219 3.14,-0.332 4.87,-0.332 7.77,0 14.35,2.711 19.76,8.113 5.39,5.399 8.1,11.989 8.1,19.758 v 84.891 c 0,1.719 -0.11,3.351 -0.32,4.859 -0.44,1.731 -0.87,3.352 -1.3,4.852 -1.3,3.679 -3.46,7.019 -6.48,10.049 -2.17,2.16 -4.65,3.89 -7.46,5.19 -1.07,0.64 -2.16,1.07 -3.24,1.29 z m -831.06,401.11 h -129.27 l 100.11,-100.12 h 129.28 z m 174.64,-100.12 h 119.56 l -100.11,100.12 h -119.56 z m 491.18,126.36 h 11.34 c 3.9,-6.9 8.1,-14.58 12.64,-23 1.08,-2.16 2.16,-4.43 3.24,-6.8 0.87,-1.73 1.73,-3.57 2.59,-5.51 0.44,-0.65 0.87,-1.41 1.3,-2.27 0.22,-0.43 0.44,-0.97 0.65,-1.62 2.37,-4.97 4.75,-10.16 7.12,-15.55 0.43,-1.08 0.98,-2.16 1.62,-3.25 0.87,-2.14 1.73,-4.3 2.6,-6.47 0.22,-0.22 0.32,-0.43 0.32,-0.65 0.22,-0.43 0.43,-0.97 0.65,-1.62 0.43,-0.65 0.87,-1.4 1.3,-2.27 1.29,-3.45 2.8,-6.91 4.53,-10.37 2.16,-4.53 4.43,-9.17 6.8,-13.93 8.86,-17.93 19.44,-37.58 31.76,-58.96 0.22,0 0.32,-0.11 0.32,-0.33 0.65,-1.08 1.3,-2.17 1.95,-3.24 0.64,-1.3 1.39,-2.59 2.26,-3.89 5.83,-9.07 12.09,-17.49 18.79,-25.27 9.5,-10.37 19.88,-19.22 31.11,-26.57 v 223.56 h -147.75 z m -298.39,-126.36 h 129.27 l -100.11,100.12 h -129.28 z m 278.95,16.53 v 66.74 h -139.96 l 66.74,-66.74 z m 190.52,-332.1 c 0.43,0 0.86,0 1.3,0 1.51,0 2.91,-0.11 4.21,-0.33 0.43,-1.94 0.75,-3.99 0.96,-6.15 0,-0.641 0,-1.192 0,-1.622 v -24.296 h -33.04 v 4.539 c 0,7.781 2.7,14.359 8.09,19.757 5.2,5.192 11.35,7.882 18.48,8.102 z m -1003.43,662.25 h -803.18 v -35.31 h 948.02 z M 5176.5,1454.42 h -37.9 v -242.67 l 19.44,-35.97 c 5.18,-3.89 10.58,-7.65 16.2,-11.34 0.64,-0.64 1.4,-1.18 2.26,-1.62 7.56,-5.18 15.35,-10.14 23.33,-14.9 10.16,-6.04 20.41,-11.77 30.79,-17.17 19.22,-9.94 38.87,-18.57 58.96,-25.92 2.17,-0.65 4.33,-1.4 6.48,-2.27 v -59.29 h 71.93 L 5477.5,933.762 v -23.653 h -181.44 c -19.65,-3.25 -37.48,-10.8 -53.46,-22.687 -5.18,-3.891 -10.15,-8.203 -14.9,-12.961 h 178.2 v -34.012 h -43.42 v 10.371 h -13.28 v -10.371 h -54.11 V 728.34 h -32.39 v 67.082 c 0,15.117 -7.57,22.668 -22.69,22.668 h -38.55 c -15.13,0 -22.68,-7.551 -22.68,-22.668 V 728.34 h -31.44 v 63.5 h -199.9 v 68.371 h -33.05 v 51.187 h 33.05 v 82.622 h -46.66 v 61.23 h -996.29 l -23.33,23.33 h -51.19 l -66.09,66.1 h 147.09 l -78.72,78.74 h -147.1 l -31.11,31.1 h -40.17 V 979.121 h 11.01 V 860.859 l -117.94,117.942 h 30.46 v 109.179 h -85.86 v -84.89 h 1.62 L 3667.32,788.93 V 558.891 H 3517.31 V 86.5 h -87.48 v 287.391 l -185,185 H 2986.61 V 746.48 l -79.71,79.711 v 253.369 h -75.16 v 76.13 l -23.98,-16.19 V 951.898 H 2389.8 l -94.93,-94.929 V 826.191 H 1987.4 v 49.25 l -289.66,289.659 -182.4,-182.42 -290.31,-0.321 v -40.507 h -105.3 v 45.039 h 21.71 v 52.169 h 80.03 l 294.19,294.19 v 197.64 h 97.52 l 65.45,-65.45 h 268.92 v -43.1 l 20.73,-20.73 h 198.94 v 63.83 h 27.54 v -63.83 h 105.3 v 63.83 h 15.55 l -26.24,26.24 h -598.11 l -51.84,51.84 h -75.16 v 12.63 h -244.94 v 110.17 l 99.14,99.14 h 234.58 l 98.49,98.49 327.23,-327.23 50.88,50.87 37.9,-37.91 h 23.01 l -59.29,59.29 -33.7,-33.7 -257.58,257.58 h 67.07 l 15.23,15.24 0.97,15.86 139.32,139.32 h 1419.1 l 314.61,-314.6 h 14.57 l 36.3,36.29 h 43.42 v -36.29 h 17.49 l 36.29,36.29 h 43.41 v -36.29 h 17.49 l 36.29,36.29 h 43.42 v -36.29 h 17.49 l 36.29,36.29 h 43.42 v -36.29 h 79.71 l 23.32,-23.33 94.6,0.33 v -8.75 H 4604 c -3.02,-2.37 -6.91,-4.43 -11.66,-6.16 l -9.4,-9.39 h 0.33 l -6.48,-6.48 h -197 v -7.45 h 378.75 l 100.78,-100.76 c -2.17,-11.67 3.01,-18.91 15.54,-21.71 v -12.64 h 25.6 l 6.16,-15.88 h 156.49 v 15.88 h 8.75 l 6.48,6.48 h -0.32 l 9.38,9.39 c 3.03,1.09 5.63,2.28 7.79,3.58 1.5,0.86 2.8,1.72 3.88,2.58 h -35.96 v 12.96 h 75.49 v -50.87 h 37.9 v -3.24 h 26.25 v -15.55 h -26.25 v -3.24"
         style="fill:#b2b1aa;fill-opacity:1;fill-rule:evenodd;stroke:none"
         id="path74"
         inkscape:connector-curvature="0" /><path
         d="m 5295.09,840.449 -37.91,34.012 h 148.72 v -34.012 h -43.42 V 850.82 H 5349.2 V 840.449 Z M 5138.6,1483.91 v -7.46 h 37.9 v -3.24 h 26.25 v -15.55 h -26.25 v -3.24 h -37.9 v 22.03 h -3.24 v -3.56 h -71.6 v 3.56 h -0.65 v 15.88 h 8.75 l 0.96,0.97 v -9.39 h 10.05 z m 0,-236.85 h -75.49 v 8.43 h 75.49 v -8.43"
         style="fill:#4b4b46;fill-opacity:1;fill-rule:evenodd;stroke:none"
         id="path76"
         inkscape:connector-curvature="0" /><path
         d="m 1485.85,910.762 h -183.38 l -51.52,51.508 h 234.9 z m 1971.2,-219.68 c 0.65,-2.16 0.98,-4.75 0.98,-7.773 v -50.547 h -63.51 v 50.547 c 0,12.742 6.26,19.113 18.79,19.113 h 25.6 c 6.05,0 10.58,-1.41 13.6,-4.211 2.17,-1.731 3.67,-4.102 4.54,-7.129 z m -1064.01,155.84 -29.16,29.156 16.2,16.203 29.16,-29.16 z m 254.67,77.117 h 23 V 879.66 h -23 z M 2391.43,677.801 v 97.519 l 73.87,73.879 h 333.71 V 818.738 L 2658.08,677.801 Z m 495.39,787.639 v 49.89 h 50.87 l -49.9,-49.89 z m -848.55,371.95 -43.74,43.74 -45.36,-45.68 43.74,-43.75 z M 5048.53,925.332 h -70.63 v 47.629 h 70.63 z m 80.35,541.078 h -56.06 V 1275.9 h 10.05 v 180.47 h 46.01 z m -2938.33,120.52 v -37.25 l -59.29,59.29 -33.7,-33.7 -257.58,257.58 h 67.07 l 15.23,15.24 0.97,15.86 139.32,139.32 30.77,-30.78 h 1419.11 l 283.83,-283.82 h -69.01 l -244.3,244.3 h -122.79 l 244.29,-244.3 h -33.38 l -115.34,115.34 -55.08,-55.08 60.27,-60.26 h -51.52 l -188.56,188.58 h -80.35 -546.27 l 47.96,47.95 h -190.52 l -47.94,-47.95 h -285.77 l -29.48,-29.82 131.54,-131.54 88.45,-88.45 -18.14,-25.27 -245.27,245.26 v -43.42 l -35.96,-35.63 z m -317.52,-60.25 v 62.53 c 0,21.6 -10.8,32.39 -32.4,32.39 h -44.07 c -21.59,0 -32.39,-10.79 -32.39,-32.39 v -62.53 h -71.93 l -29.49,29.47 h -98.49 -244.94 v 110.17 l 25.59,-4.21 86.18,86.18 h 244.3 l 84.89,84.56 306.18,-306.17 z m -451.98,109.83 h -47.3 v -30.78 h 47.3 z m 23.66,-39.53 h 69.98 l 84.56,84.56 h -154.54 z m 3812.47,-722.519 37.91,-34.012 V 728.34 h -32.39 v 67.082 c 0,15.117 -7.57,22.668 -22.69,22.668 h -38.55 c -15.13,0 -22.68,-7.551 -22.68,-22.668 V 728.34 h -31.44 v 63.5 H 4991.5 v 32.082 h 173.67 c 1.72,5.617 3.67,11.129 5.83,16.527 0.64,1.942 1.4,3.781 2.26,5.512 H 4991.5 v 12.949 h 187.92 c 3.03,5.399 6.26,10.59 9.72,15.551 2.6,3.469 5.29,6.809 8.1,10.051 v 40.82 h -92.98 v 47.629 h 92.98 v 14.258 h 226.8 l 53.46,-53.457 v -23.653 h -181.44 c -19.65,-3.25 -37.48,-10.8 -53.46,-22.687 -5.18,-3.891 -10.15,-8.203 -14.9,-12.961 z m -194.07,390.749 v 189.21 h 0.65 v 18.47 h 71.6 v 3.56 h 3.24 v -22.03 -189.21 h -75.49"
         style="fill:#b2b1aa;fill-opacity:1;fill-rule:evenodd;stroke:none"
         id="path78"
         inkscape:connector-curvature="0" /><path
         d="m 1221.47,1039.06 -34.02,-34.02 22.68,-22.681 h 14.9 v -40.507 h -105.3 v 45.039 h 21.71 v 52.169 z m 1476.13,451.98 -39.2,39.19 -39.21,-39.19 z m -103.02,0.97 74.18,74.19 h -80.66 l -74.2,-74.19 z m 263.72,-0.97 v 72.89 h -114.69 l 72.9,-72.89 z m -594.85,-172.05 -10.37,-9.39 h -43.09 v -138.35 h -13.29 v 148.71 z m 219.02,172.05 72.9,72.89 h -184.69 v -31.42 l 41.48,-41.47 z m 2580.64,-36.62 h -147.75 l -2.59,6.49 h 150.99 v -6.49 z M 3689.69,1294.04 h 1276.55 l 44.38,-44.7 h -1315.1 l 23.97,13.92 h 776.3 l -12.97,12.96 h -775.31 z m 201.52,-129.6 h 551.11 l 19.77,-19.76 h -551.12 z m 635.03,0 h 79.06 l 19.77,-19.76 h -79.06 z m -1608.64,301 h -29.81 l 49.9,49.89 h -50.87 v -49.89 h -571.21 l -26.24,26.24 h -598.11 l -51.84,51.84 h -75.16 v 12.63 h 98.49 l 29.49,-29.47 h 71.93 v -24.31 h 108.86 v 24.31 h 193.43 288.35 v 56.04 h 531.36 v -56.04 h 1973.15 c -2.17,-11.67 3.01,-18.91 15.54,-21.71 v -0.98 H 2956.15 Z m 1462.19,162 h -55.72 c -0.43,0 -0.76,0 -0.97,0 l -37.91,37.9 h 14.58 l 27.21,-27.21 h 52.81 v -3.24 z m 758.81,-380.38 v -16.2 h -75.49 v 16.2 z m -75.49,8.43 v 9.72 h 75.49 v -9.72 z m 360.93,-268.271 h -263.08 v 18.141 h 109.5 V 1041 h -342.14 v -35.64 h 58.64 v -18.141 h -19.11 V 791.84 h -20.41 v 68.371 h -33.05 v 51.187 h 33.05 v 82.622 h -46.66 v 61.23 h 296.46 73.55 v 31.11 l -144.18,58.32 h -418.6 l -19.77,19.76 h 486 c 0.64,-0.64 1.4,-1.18 2.26,-1.62 7.56,-5.18 15.35,-10.14 23.33,-14.9 10.16,-6.04 20.41,-11.77 30.79,-17.17 19.22,-9.94 38.87,-18.57 58.96,-25.92 2.17,-0.65 4.33,-1.4 6.48,-2.27 v -59.29 h 71.93 z m -341.17,496.691 h -10.05 v 9.39 l 5.52,5.51 h -0.32 l 6.47,6.48 h 44.39 v -10.05 h -46.01 z m 12.32,27.87 c 1.5,0.86 2.8,1.72 3.88,2.58 h -35.96 v 12.96 h 75.49 v -15.54 h -43.41"
         style="fill:#91918a;fill-opacity:1;fill-rule:evenodd;stroke:none"
         id="path80"
         inkscape:connector-curvature="0" /><path
         d="m 5138.6,1483.91 h -55.73 v 11.33 h 46.01 v 10.05 h -44.39 l 2.91,2.91 c 3.03,1.09 5.63,2.28 7.79,3.58 h 43.41 v -27.87"
         style="fill:#6a6b65;fill-opacity:1;fill-rule:evenodd;stroke:none"
         id="path82"
         inkscape:connector-curvature="0" /><path
         d="m 4442.32,1164.44 h -551.11 l -19.76,19.77 550.79,0.32 z m 162.98,0 h -79.06 l -20.08,20.09 h 78.72 z m 82.94,0 -20.41,20.41 477.57,0.33 c 4.11,-3.24 8.32,-6.37 12.64,-9.4 5.18,-3.89 10.58,-7.65 16.2,-11.34 h -486"
         style="fill:#70716a;fill-opacity:1;fill-rule:evenodd;stroke:none"
         id="path84"
         inkscape:connector-curvature="0" /><path
         d="m 1764.17,1863.95 h 155.84 l -17.5,-17.49 h -120.85 z m -576.72,-858.91 34.02,34.02 294.19,294.19 v 197.64 h 97.52 l 65.45,-65.45 h 268.92 v -20.73 H 1664.7 l -439.67,-439.67 z m 2096.26,-1.95 17.82,-9.391 h -126.68 l -9.39,9.391 z m -1273.63,-130.891 -320.43,320.441 -25.6,25.59 11.66,5.83 334.37,-334.361 z m 976.53,-125.719 231.01,230.7 h 60.59 l -291.6,-291.61 z m -595.18,-68.679 h -30.14 V 795.09 l 69.01,69.012 h 368.71 V 849.199 H 2465.3 l -73.87,-73.879 z m 603.92,276.051 H 3174.2 L 2995.35,775 Z m 17.5,201.838 35.32,-35.31 h -118.26 v -317.2 l -23.01,23.011 v 329.499 z m -418.27,336.32 h -80.68 l 74.2,74.19 h 80.66 z M 2281.26,1332.6 h 46.98 v -176.91 h 503.5 l -23.98,-16.19 h -663.54 l -134.14,-134.14 v -42.438 l -22.68,22.668 v 32.09 l 138.02,138.01 h 155.84 z m -369.03,-132.85 32.4,35.33 122.47,-122.15 -34.01,-34.02 z m 351.22,119.24 v -147.74 h -10.37 v 138.35 z m -173.34,249.81 -8.75,-8.75 -272.81,272.8 h 17.49 z m 77.11,-167.19 v 63.83 h 27.54 v -20.73 h -18.14 v -52.5 h -196.67 l -9.4,9.4 z m 1285.62,-147.09 -151.31,-151.31 -17.82,4.53 146.78,146.78 z m -40.17,492.79 58.64,-58.64 h 88.12 l -102.7,102.72 z m 1716.21,-280.9 v -10.04 h -46.01 V 1275.9 h -10.05 v 190.51 z m -224.86,-64.16 7.13,-7.11 v -77.77 H 4749.8 l -15.22,15.23 h 166.2 v 66.74 z m 11.34,52.17 3.9,-9.71 h -1659.2 v 20.73 h 1596.66 l 0.64,6.47 h 51.2 l -1.94,4.54 h 156.49 0.65 v -3.56 -11.98 h -150.99 z m -827.49,208.33 h -803.18 v -35.31 h 948.02 z m -244.29,39.2 h -19.44 l 23.01,23.01 h 43.42 v -9.72 h -33.7 z m 97.2,0 h -19.44 l 23.01,23.01 h 43.41 v -9.72 h -33.7 z m 97.2,0 h -19.44 l 23,23.01 h 43.42 v -9.72 h -33.7 z m -525.53,270.54 H 2093.34 l -30.77,30.78 h 1419.1 z m -624.66,-507.05 h 317.84 v -20.73 h -896.18 v -52.5 l -114.69,1.31 v 8.09 h 105.3 v 63.83 h 15.55 571.21 z m 1695.15,175.93 H 4385.3 v 15.55 H 4604 c -3.02,-2.37 -6.91,-4.43 -11.66,-6.16 z m -203.15,-3.24 h -52.81 l -27.21,27.21 80.02,0.33 v -8.75 z m -374.54,50.54 h 256.62 l 23.32,-23.33 37.91,-37.9 c 0.21,0 0.54,0 0.97,0 h 55.72 378.75 l 100.78,-100.76 H 2886.17 v 56.04 h -531.36 v -56.04 h -288.35 l -306.18,306.17 -84.89,-84.56 -22.35,17.17 98.49,98.49 327.23,-327.23 50.88,50.87 37.9,-37.91 h 23.01 v 37.25 l 35.96,35.65 -181.44,181.43 v 43.42 l 245.27,-245.26 18.14,25.27 -88.45,88.45 h 11.99 l 76.46,-76.47 v 7.79 l -24.62,24.61 h 450.04 v -44.38 h 203.79 v 54.1 h 89.42 l 25.6,-25.59 v -28.51 h 49.57 v 40.82 h 74.19 v -40.82 h 62.52 v 61.23 h 90.08 l -188.56,188.58 h 80.35 l 188.56,-188.58 h 51.52 l -60.27,60.26 55.08,55.08 115.34,-115.34 h 33.38 122.8 69.01 14.57 79.72 17.49 79.7 z m 129.94,13.28 h -19.45 l 23,23.01 h 43.42 v -9.72 h -33.69 l -13.28,-13.29"
         style="fill:#cbc9be;fill-opacity:1;fill-rule:evenodd;stroke:none"
         id="path86"
         inkscape:connector-curvature="0" /><path
         d="m 4037.98,1701.95 13.28,13.29 h 33.7 v -13.29 z m -50.22,0 h -46.98 l 13.28,13.29 h 33.7 z m -144.18,0 13.29,13.29 h 33.7 v -13.29 z m 541.72,-45.03 v -15.55 h 197.97 l -6.48,-6.48 h -197 v 3.24 18.79 z m -203.14,45.03 h -46.97 l 13.28,13.29 h 33.69 v -13.29"
         style="fill:#94948a;fill-opacity:1;fill-rule:evenodd;stroke:none"
         id="path88"
         inkscape:connector-curvature="0" /><path
         d="m 4018.54,1701.95 h 66.42 v -13.28 h -79.71 z m -174.96,0 h 46.99 v -13.28 h -79.72 l 13.29,13.28 z m 97.2,0 h 46.98 v -13.28 h -79.7 l 13.28,13.28 z m 241.38,-13.28 h -79.71 l 13.29,13.28 h 66.42 v -13.28"
         style="fill:#73736c;fill-opacity:1;fill-rule:evenodd;stroke:none"
         id="path90"
         inkscape:connector-curvature="0" /><path
         d="m 3695.52,1249.34 -41.48,44.7 h 35.65 l 17.82,-17.82 h 775.31 l 12.97,-12.96 h -776.3 l -23.97,-13.92"
         style="fill:#686962;fill-opacity:1;fill-rule:evenodd;stroke:none"
         id="path92"
         inkscape:connector-curvature="0" /><path
         d="m 5091.3,953.52 h 6.47 v -46.321 c 0,-7.789 -2.69,-14.367 -8.09,-19.777 -5.19,-5.184 -11.34,-7.871 -18.48,-8.102 -0.43,0 -0.86,0 -1.29,0 -1.3,0 -2.6,0.11 -3.88,0.34 -0.86,2.578 -1.3,5.281 -1.3,8.09 v 65.77 h 6.47 v -63.5 c 3.24,0.871 6.27,2.371 9.08,4.539 1.08,0.863 2.05,1.73 2.91,2.589 5.4,5.403 8.11,11.993 8.11,19.762 z m 0,14.582 v 24.957 c -4.54,-1.297 -8.54,-3.688 -11.99,-7.137 -4.97,-4.961 -7.67,-10.91 -8.11,-17.82 h -6.47 v 4.539 c 0,7.781 2.7,14.359 8.09,19.757 5.2,5.192 11.35,7.882 18.48,8.102 0.43,0 0.86,0 1.3,0 1.51,0 2.91,-0.11 4.21,-0.33 0.43,-1.94 0.75,-3.99 0.96,-6.15 0,-0.641 0,-1.192 0,-1.622 v -24.296 h -6.47"
         style="fill:#4e4e4a;fill-opacity:1;fill-rule:evenodd;stroke:none"
         id="path94"
         inkscape:connector-curvature="0" /><path
         d="m 5091.3,968.102 h -20.1 c 0.44,6.91 3.14,12.859 8.11,17.82 3.45,3.449 7.45,5.84 11.99,7.137 z m 0,-14.582 v -36.61 c 0,-7.769 -2.71,-14.359 -8.11,-19.762 -0.86,-0.859 -1.83,-1.726 -2.91,-2.589 -2.81,-2.168 -5.84,-3.668 -9.08,-4.539 v 63.5 z m 105.94,33.699 v -14.258 h -92.98 v 15.879 c 0,1.719 -0.11,3.351 -0.32,4.859 -0.44,1.731 -0.87,3.352 -1.3,4.852 -1.3,3.679 -3.46,7.019 -6.48,10.049 -2.17,2.16 -4.65,3.89 -7.46,5.19 -1.07,0.64 -2.16,1.07 -3.24,1.29 -2.8,1.08 -5.82,1.62 -9.06,1.62 -7.79,0 -14.37,-2.7 -19.77,-8.1 -5.4,-5.4 -8.1,-11.979 -8.1,-19.76 v -15.879 h -70.63 v -47.629 h 70.63 v -21.383 c 0,-4.539 0.86,-8.64 2.59,-12.308 1.29,-2.602 3.13,-5.082 5.51,-7.45 1.29,-1.3 2.7,-2.48 4.21,-3.57 1.73,-1.07 3.67,-2.051 5.83,-2.922 1.51,-0.429 3.13,-0.859 4.86,-1.289 1.52,-0.219 3.14,-0.332 4.87,-0.332 7.77,0 14.35,2.711 19.76,8.113 5.39,5.399 8.1,11.989 8.1,19.758 v 21.383 h 92.98 v -40.82 c -2.81,-3.242 -5.5,-6.582 -8.1,-10.051 -3.46,-4.961 -6.69,-10.152 -9.72,-15.551 H 4991.5 v -12.949 h 181.76 c -0.86,-1.731 -1.62,-3.57 -2.26,-5.512 -2.16,-5.398 -4.11,-10.91 -5.83,-16.527 H 4991.5 V 791.84 h -23.65 v 195.379 h 19.11 v 18.141 h -58.64 V 1041 h 342.14 v -35.64 h -109.5 v -18.141 z m -296.46,68.031 h -996.29 l -23.33,23.33 h 1316.08 v -23.33 h -296.46"
         style="fill:#75766e;fill-opacity:1;fill-rule:evenodd;stroke:none"
         id="path96"
         inkscape:connector-curvature="0" /><path
         d="m 2561.2,1862.66 h 69.98 l -12.96,-12.96 h -44.06 z m 36.93,36.93 h -129.27 l -51.52,-51.5 h -85.53 l -12.96,12.95 h 85.53 l 51.52,51.52 h 155.19 l -12.96,-12.97"
         style="fill:#5e5e59;fill-opacity:1;fill-rule:evenodd;stroke:none"
         id="path98"
         inkscape:connector-curvature="0" /><path
         d="m 2331.81,1848.09 h 85.53 l 51.52,51.5 h 129.27 l -36.93,-36.93 12.96,-12.96 h 44.06 l -8.42,-8.42 h -271.19 l -6.8,6.81"
         style="fill:#8c8c85;fill-opacity:1;fill-rule:evenodd;stroke:none"
         id="path100"
         inkscape:connector-curvature="0" /><path
         d="m 2232.02,1715.89 457.48,0.32 44.4,-44.39 h -450.04 l 24.62,-24.61 v -7.79 z m 705.67,-34.35 v 25.6 h 63.82 l 25.6,-25.6 z m -1262.3,66.75 h -244.3 l -86.18,-86.18 -25.59,4.21 99.14,99.14 h 234.58 l 22.35,-17.17"
         style="fill:#d6d4c6;fill-opacity:1;fill-rule:evenodd;stroke:none"
         id="path102"
         inkscape:connector-curvature="0" /><path
         d="m 1225.03,982.359 h -14.9 l -22.68,22.681 h 314.28 l 187.92,187.6 320.43,-320.441 v -46.008 h -22.68 v 49.25 L 1697.74,1165.1 1515.34,982.68 Z m 719.6,252.721 -32.4,-35.33 h -138.99 l -35.32,35.33 h 206.71"
         style="fill:#909089;fill-opacity:1;fill-rule:evenodd;stroke:none"
         id="path104"
         inkscape:connector-curvature="0" /><path
         d="m 3271.4,558.891 187.59,-187.59 V 86.5 h -29.16 v 287.391 l -185,185 h 26.57"
         style="fill:#c3c1bc;fill-opacity:1;fill-rule:evenodd;stroke:none"
         id="path106"
         inkscape:connector-curvature="0" /><path
         d="m 3443.77,715.059 h -35.32 c -17.28,0 -25.92,-8.637 -25.92,-25.918 V 619.48 h 87.16 v 69.661 c 0,3.238 -0.32,6.16 -0.98,8.75 -2.59,11.441 -10.91,17.168 -24.94,17.168 z m 4.21,11.992 c 12.96,0 22.03,-3.891 27.22,-11.672 1.72,-2.797 3.13,-6.047 4.2,-9.719 0.65,-3.238 0.98,-6.91 0.98,-11.012 V 607.82 h -108.87 v 86.828 c 0,21.602 10.8,32.403 32.41,32.403 h 44.06"
         style="fill:#8a8a86;fill-opacity:1;fill-rule:evenodd;stroke:none"
         id="path108"
         inkscape:connector-curvature="0" /><path
         d="m 1566.85,1456.37 -17.49,-12.64 c -6.48,6.91 -9.72,15.12 -9.72,24.63 0,9.93 3.56,18.46 10.69,25.59 7.13,7.12 15.66,10.7 25.59,10.7 6.91,0 13.18,-1.73 18.8,-5.2 1.08,-0.64 2.26,-1.5 3.56,-2.59 l -11.66,-18.46 c -3.03,3.03 -6.48,4.54 -10.37,4.54 -4.32,0 -7.89,-1.51 -10.69,-4.54 -2.82,-2.81 -4.22,-6.15 -4.22,-10.04 0,-4.11 1.4,-7.68 4.22,-10.7 0.43,-0.43 0.86,-0.86 1.29,-1.29"
         style="fill:#3c3c43;fill-opacity:1;fill-rule:evenodd;stroke:none"
         id="path110"
         inkscape:connector-curvature="0" /><path
         d="m 1574.31,1466.08 c 0.86,1.09 1.29,2.28 1.29,3.57 0,1.51 -0.43,2.7 -1.29,3.56 -1.09,1.09 -2.27,1.62 -3.57,1.62 -1.51,0 -2.81,-0.53 -3.89,-1.62 -0.86,-0.86 -1.29,-2.05 -1.29,-3.56 0,-1.29 0.43,-2.48 1.29,-3.57 1.08,-1.07 2.38,-1.62 3.89,-1.62 1.3,0 2.48,0.55 3.57,1.62 z m 12.31,12.32 c 2.8,-2.81 4.21,-6.15 4.21,-10.04 0,-4.11 -1.41,-7.68 -4.21,-10.7 -3.03,-2.81 -6.48,-4.2 -10.37,-4.2 -3.68,0 -6.81,0.96 -9.4,2.91 -0.43,0.43 -0.86,0.86 -1.29,1.29 -2.82,3.02 -4.22,6.59 -4.22,10.7 0,3.89 1.4,7.23 4.22,10.04 2.8,3.03 6.37,4.54 10.69,4.54 3.89,0 7.34,-1.51 10.37,-4.54"
         style="fill:#100f0d;fill-opacity:1;fill-rule:evenodd;stroke:none"
         id="path112"
         inkscape:connector-curvature="0" /><path
         d="m 1574.31,1466.08 c -1.09,-1.07 -2.27,-1.62 -3.57,-1.62 -1.51,0 -2.81,0.55 -3.89,1.62 -0.86,1.09 -1.29,2.28 -1.29,3.57 0,1.51 0.43,2.7 1.29,3.56 1.08,1.09 2.38,1.62 3.89,1.62 1.3,0 2.48,-0.53 3.57,-1.62 0.86,-0.86 1.29,-2.05 1.29,-3.56 0,-1.29 -0.43,-2.48 -1.29,-3.57"
         style="fill:#cbc9be;fill-opacity:1;fill-rule:evenodd;stroke:none"
         id="path114"
         inkscape:connector-curvature="0" /><path
         d="m 1598.28,1496.86 c 1.08,-0.86 2.16,-1.83 3.24,-2.91 6.69,-6.7 10.26,-14.57 10.69,-23.66 0,-0.64 0,-1.29 0,-1.93 0,-9.94 -3.56,-18.48 -10.69,-25.61 -7.13,-7.12 -15.66,-10.68 -25.6,-10.68 -4.1,0 -7.99,0.64 -11.66,1.94 -5.18,1.73 -9.83,4.64 -13.93,8.74 -0.44,0.44 -0.76,0.77 -0.97,0.98 l 17.49,12.64 c 2.59,-1.95 5.72,-2.91 9.4,-2.91 3.89,0 7.34,1.39 10.37,4.2 2.8,3.02 4.21,6.59 4.21,10.7 0,3.89 -1.41,7.23 -4.21,10.04 l 11.66,18.46"
         style="fill:#91918a;fill-opacity:1;fill-rule:evenodd;stroke:none"
         id="path116"
         inkscape:connector-curvature="0" /><path
         d="m 1549.36,1443.73 c 0.21,-0.21 0.53,-0.54 0.97,-0.98 4.1,-4.1 8.75,-7.01 13.93,-8.74 3.67,-1.3 7.56,-1.94 11.66,-1.94 9.94,0 18.47,3.56 25.6,10.68 7.13,7.13 10.69,15.67 10.69,25.61 0,0.64 0,1.29 0,1.93 -0.43,9.09 -4,16.96 -10.69,23.66 -1.08,1.08 -2.16,2.05 -3.24,2.91 -1.3,1.09 -2.48,1.95 -3.56,2.59 2.37,-1.07 4.64,-2.48 6.8,-4.21 1.08,-0.86 2.16,-1.83 3.24,-2.91 6.91,-6.91 10.58,-15.01 11.02,-24.3 0,-0.65 0,-1.29 0,-1.95 0,-10.14 -3.68,-18.79 -11.02,-25.92 -7.35,-7.34 -16.09,-11.01 -26.24,-11.01 -4.11,0 -8,0.64 -11.67,1.94 -5.4,1.73 -10.15,4.76 -14.25,9.07 -0.44,0.45 -0.76,0.76 -0.97,0.98 -0.87,0.86 -1.63,1.73 -2.27,2.59"
         style="fill:#e6e5d8;fill-opacity:1;fill-rule:evenodd;stroke:none"
         id="path118"
         inkscape:connector-curvature="0" /><path
         d="m 3197.85,659.859 -17.5,-12.629 c -6.47,6.911 -9.72,15.122 -9.72,24.622 0,9.937 3.57,18.468 10.7,25.597 7.13,7.129 15.65,10.692 25.59,10.692 6.92,0 13.18,-1.731 18.79,-5.18 1.09,-0.652 2.27,-1.52 3.57,-2.59 l -11.66,-18.48 c -3.03,3.031 -6.49,4.539 -10.37,4.539 -4.32,0 -7.88,-1.508 -10.7,-4.539 -2.81,-2.801 -4.21,-6.153 -4.21,-10.039 0,-4.102 1.4,-7.661 4.21,-10.692 0.43,-0.43 0.87,-0.859 1.3,-1.301"
         style="fill:#3c3c43;fill-opacity:1;fill-rule:evenodd;stroke:none"
         id="path120"
         inkscape:connector-curvature="0" /><path
         d="m 3206.6,673.148 c 0,1.512 -0.44,2.704 -1.3,3.571 -1.08,1.07 -2.26,1.621 -3.56,1.621 -1.52,0 -2.8,-0.551 -3.89,-1.621 -0.87,-0.867 -1.3,-2.059 -1.3,-3.571 0,-1.296 0.43,-2.488 1.3,-3.558 1.09,-1.09 2.37,-1.621 3.89,-1.621 1.3,0 2.48,0.531 3.56,1.621 0.86,1.07 1.3,2.262 1.3,3.558 z m 11.02,8.743 c 2.8,-2.801 4.21,-6.153 4.21,-10.039 0,-4.102 -1.41,-7.661 -4.21,-10.692 -3.03,-2.808 -6.49,-4.211 -10.37,-4.211 -3.68,0 -6.81,0.973 -9.4,2.91 -0.43,0.442 -0.87,0.871 -1.3,1.301 -2.81,3.031 -4.21,6.59 -4.21,10.692 0,3.886 1.4,7.238 4.21,10.039 2.82,3.031 6.38,4.539 10.7,4.539 3.88,0 7.34,-1.508 10.37,-4.539"
         style="fill:#100f0d;fill-opacity:1;fill-rule:evenodd;stroke:none"
         id="path122"
         inkscape:connector-curvature="0" /><path
         d="m 3206.6,673.148 c 0,-1.296 -0.44,-2.488 -1.3,-3.558 -1.08,-1.09 -2.26,-1.621 -3.56,-1.621 -1.52,0 -2.8,0.531 -3.89,1.621 -0.87,1.07 -1.3,2.262 -1.3,3.558 0,1.512 0.43,2.704 1.3,3.571 1.09,1.07 2.37,1.621 3.89,1.621 1.3,0 2.48,-0.551 3.56,-1.621 0.86,-0.867 1.3,-2.059 1.3,-3.571"
         style="fill:#cbc9be;fill-opacity:1;fill-rule:evenodd;stroke:none"
         id="path124"
         inkscape:connector-curvature="0" /><path
         d="m 3229.28,700.371 c 1.08,-0.871 2.16,-1.84 3.24,-2.922 6.69,-6.699 10.26,-14.578 10.69,-23.648 0,-0.653 0,-1.301 0,-1.949 0,-9.93 -3.56,-18.461 -10.69,-25.59 -7.13,-7.133 -15.66,-10.703 -25.6,-10.703 -4.1,0 -7.98,0.652 -11.66,1.953 -5.18,1.726 -9.83,4.648 -13.93,8.75 -0.44,0.429 -0.75,0.75 -0.98,0.968 l 17.5,12.629 c 2.59,-1.937 5.72,-2.91 9.4,-2.91 3.88,0 7.34,1.403 10.37,4.211 2.8,3.031 4.21,6.59 4.21,10.692 0,3.886 -1.41,7.238 -4.21,10.039 l 11.66,18.48"
         style="fill:#91918a;fill-opacity:1;fill-rule:evenodd;stroke:none"
         id="path126"
         inkscape:connector-curvature="0" /><path
         d="m 3180.35,647.23 c 0.23,-0.218 0.54,-0.539 0.98,-0.968 4.1,-4.102 8.75,-7.024 13.93,-8.75 3.68,-1.301 7.56,-1.953 11.66,-1.953 9.94,0 18.47,3.57 25.6,10.703 7.13,7.129 10.69,15.66 10.69,25.59 0,0.648 0,1.296 0,1.949 -0.43,9.07 -4,16.949 -10.69,23.648 -1.08,1.082 -2.16,2.051 -3.24,2.922 -1.3,1.07 -2.48,1.938 -3.57,2.59 2.39,-1.09 4.65,-2.481 6.81,-4.211 1.08,-0.871 2.16,-1.84 3.23,-2.922 6.92,-6.918 10.59,-15.008 11.03,-24.297 0,-0.64 0,-1.301 0,-1.941 0,-10.16 -3.68,-18.801 -11.03,-25.918 -7.34,-7.34 -16.08,-11.024 -26.24,-11.024 -4.1,0 -7.99,0.653 -11.66,1.954 -5.4,1.73 -10.15,4.738 -14.26,9.07 -0.43,0.43 -0.75,0.75 -0.96,0.969 -0.87,0.859 -1.62,1.73 -2.28,2.589"
         style="fill:#e6e5d8;fill-opacity:1;fill-rule:evenodd;stroke:none"
         id="path128"
         inkscape:connector-curvature="0" /></g></g></svg>